<svg xmlns="http://www.w3.org/2000/svg" width="512" height="512" viewBox="0 0 512 512" version="1.1"><path d="M 240.656 195.581 C 237.442 196.360, 231.247 198.851, 226.890 201.118 C 221.544 203.899, 216.734 207.473, 212.103 212.103 C 207.485 216.721, 203.899 221.545, 201.140 226.847 C 198.885 231.182, 196.363 237.602, 195.535 241.114 C 194.707 244.626, 194.030 251.325, 194.030 256 C 194.030 260.675, 194.707 267.374, 195.535 270.886 C 196.363 274.398, 198.885 280.818, 201.140 285.153 C 203.899 290.455, 207.485 295.279, 212.103 299.897 C 216.721 304.515, 221.545 308.101, 226.847 310.860 C 231.182 313.115, 237.602 315.637, 241.114 316.465 C 244.626 317.293, 251.325 317.970, 256 317.970 C 260.675 317.970, 267.374 317.293, 270.886 316.465 C 274.398 315.637, 280.818 313.115, 285.153 310.860 C 290.455 308.101, 295.279 304.515, 299.897 299.897 C 304.515 295.279, 308.101 290.455, 310.860 285.153 C 313.115 280.818, 315.637 274.398, 316.465 270.886 C 317.293 267.374, 317.970 260.675, 317.970 256 C 317.970 251.325, 317.293 244.626, 316.465 241.114 C 315.637 237.602, 313.115 231.182, 310.860 226.847 C 308.101 221.545, 304.515 216.721, 299.897 212.103 C 295.279 207.485, 290.455 203.899, 285.153 201.140 C 280.818 198.885, 274.398 196.363, 270.886 195.535 C 267.374 194.707, 260.450 194.060, 255.500 194.098 C 250.550 194.136, 243.870 194.803, 240.656 195.581" stroke="none" fill="#f3b3b3" fill-rule="evenodd"/><path d="M 228 1.100 C 223.875 1.562, 216.450 2.660, 211.500 3.540 C 206.550 4.420, 198.900 6.035, 194.500 7.129 C 190.100 8.224, 182.420 10.414, 177.434 11.997 C 172.448 13.579, 164.798 16.285, 160.434 18.010 C 156.070 19.734, 146.200 24.396, 138.500 28.370 C 130.800 32.343, 120.490 38.236, 115.589 41.466 C 110.688 44.696, 102.138 50.926, 96.589 55.311 C 91.040 59.696, 81.309 68.507, 74.965 74.892 C 68.621 81.276, 60.552 90.053, 57.033 94.395 C 53.514 98.737, 46.837 107.962, 42.196 114.895 C 37.555 121.828, 30.258 134.700, 25.981 143.500 C 21.703 152.300, 16.390 164.726, 14.173 171.113 C 11.956 177.499, 8.789 188.299, 7.134 195.113 C 5.480 201.926, 3.318 212.450, 2.331 218.500 C 0.937 227.042, 0.532 235.310, 0.518 255.500 C 0.504 275.790, 0.898 284.025, 2.314 293 C 3.312 299.325, 5.226 309.157, 6.567 314.849 C 7.908 320.541, 9.910 326.469, 11.015 328.021 C 12.121 329.574, 15.025 331.608, 17.470 332.542 C 20.427 333.671, 23.106 334.015, 25.478 333.570 C 27.439 333.202, 30.603 331.532, 32.509 329.858 C 34.415 328.184, 36.465 325.169, 37.064 323.157 C 37.966 320.127, 37.710 317.542, 35.568 308.080 C 34.147 301.799, 32.312 291.538, 31.492 285.279 C 30.664 278.961, 30.004 266.245, 30.008 256.699 C 30.013 247.239, 30.479 235.450, 31.044 230.500 C 31.609 225.550, 32.949 217.183, 34.023 211.907 C 35.096 206.630, 37.119 198.305, 38.519 193.407 C 39.919 188.508, 42.691 180.225, 44.679 175 C 46.667 169.775, 50.748 160.580, 53.747 154.567 C 56.747 148.553, 61.037 140.678, 63.282 137.067 C 65.527 133.455, 71.210 125.335, 75.912 119.021 C 80.613 112.708, 89.869 102.133, 96.480 95.521 C 103.091 88.910, 112.915 80.190, 118.310 76.144 C 123.706 72.099, 132.031 66.320, 136.810 63.303 C 141.590 60.286, 150.537 55.366, 156.693 52.369 C 162.849 49.373, 172.856 45.148, 178.931 42.981 C 185.005 40.814, 194.593 37.870, 200.238 36.439 C 205.882 35.008, 216.350 32.957, 223.500 31.882 C 233 30.453, 241.751 29.927, 256 29.927 C 270.249 29.927, 279 30.453, 288.500 31.882 C 295.650 32.957, 306.118 35.008, 311.762 36.439 C 317.407 37.870, 326.995 40.814, 333.069 42.981 C 339.144 45.148, 349.151 49.373, 355.307 52.369 C 361.463 55.366, 370.410 60.286, 375.190 63.303 C 379.969 66.320, 388.294 72.099, 393.690 76.144 C 399.085 80.190, 409.125 89.125, 416 96 C 422.875 102.875, 431.810 112.915, 435.856 118.310 C 439.901 123.706, 445.680 132.031, 448.697 136.810 C 451.714 141.590, 456.634 150.537, 459.631 156.693 C 462.627 162.849, 466.852 172.856, 469.019 178.931 C 471.186 185.005, 474.130 194.593, 475.561 200.238 C 476.992 205.882, 479.043 216.350, 480.118 223.500 C 481.547 233, 482.073 241.751, 482.073 256 C 482.073 270.249, 481.547 279, 480.118 288.500 C 479.043 295.650, 476.992 306.118, 475.561 311.762 C 474.130 317.407, 471.186 326.995, 469.019 333.069 C 466.852 339.144, 462.627 349.151, 459.631 355.307 C 456.634 361.463, 451.714 370.410, 448.697 375.190 C 445.680 379.969, 439.901 388.294, 435.856 393.690 C 431.810 399.085, 422.875 409.125, 416 416 C 409.125 422.875, 399.085 431.810, 393.690 435.856 C 388.294 439.901, 379.969 445.680, 375.190 448.697 C 370.410 451.714, 361.463 456.634, 355.307 459.631 C 349.151 462.627, 339.144 466.852, 333.069 469.019 C 326.995 471.186, 317.407 474.130, 311.762 475.561 C 306.118 476.992, 295.650 479.043, 288.500 480.118 C 279 481.547, 270.249 482.073, 256 482.073 C 241.751 482.073, 233 481.547, 223.500 480.118 C 216.350 479.043, 205.882 476.992, 200.238 475.561 C 194.593 474.130, 185.005 471.186, 178.931 469.019 C 172.856 466.852, 162.849 462.627, 156.693 459.631 C 150.537 456.634, 141.571 451.702, 136.768 448.670 C 131.966 445.639, 124.091 440.174, 119.268 436.527 C 114.446 432.880, 106.602 426.323, 101.838 421.956 C 97.074 417.590, 91.982 413.563, 90.523 413.009 C 89.064 412.454, 86.437 412.002, 84.685 412.004 C 82.933 412.006, 79.933 412.963, 78.018 414.130 C 76.102 415.298, 73.972 416.984, 73.284 417.877 C 72.596 418.769, 71.574 421.127, 71.014 423.115 C 70.454 425.103, 70.293 428.253, 70.657 430.115 C 71.129 432.532, 73.489 435.667, 78.909 441.078 C 83.084 445.246, 91.040 452.258, 96.589 456.659 C 102.138 461.061, 110.688 467.304, 115.589 470.534 C 120.490 473.764, 130.800 479.657, 138.500 483.630 C 146.200 487.604, 156.070 492.266, 160.434 493.990 C 164.798 495.715, 172.448 498.421, 177.434 500.003 C 182.420 501.586, 190.100 503.774, 194.500 504.865 C 198.900 505.956, 206.325 507.536, 211 508.376 C 215.675 509.215, 223.870 510.374, 229.211 510.951 C 234.551 511.528, 246.607 512, 256 512 C 265.393 512, 277.449 511.528, 282.789 510.951 C 288.130 510.374, 296.325 509.215, 301 508.376 C 305.675 507.536, 313.100 505.956, 317.500 504.865 C 321.900 503.774, 329.580 501.586, 334.566 500.003 C 339.552 498.421, 347.202 495.715, 351.566 493.990 C 355.930 492.266, 365.800 487.604, 373.500 483.630 C 381.200 479.657, 391.510 473.764, 396.411 470.534 C 401.312 467.304, 409.862 461.069, 415.411 456.678 C 420.960 452.287, 430.719 443.476, 437.097 437.097 C 443.476 430.719, 452.287 420.960, 456.678 415.411 C 461.069 409.862, 467.304 401.312, 470.534 396.411 C 473.764 391.510, 479.657 381.200, 483.630 373.500 C 487.604 365.800, 492.266 355.930, 493.990 351.566 C 495.715 347.202, 498.419 339.552, 500 334.566 C 501.580 329.580, 503.619 322.575, 504.530 319 C 505.442 315.425, 507.043 308.012, 508.089 302.527 C 509.135 297.042, 510.283 289.041, 510.642 284.746 C 511 280.451, 511.677 276.700, 512.146 276.410 C 512.616 276.119, 513 266.684, 513 255.441 C 513 244.198, 512.615 235, 512.144 235 C 511.673 235, 510.996 231.500, 510.639 227.223 C 510.282 222.945, 509.135 214.958, 508.089 209.473 C 507.043 203.988, 505.442 196.575, 504.530 193 C 503.619 189.425, 501.580 182.420, 500 177.434 C 498.419 172.448, 495.715 164.798, 493.990 160.434 C 492.266 156.070, 487.604 146.200, 483.630 138.500 C 479.657 130.800, 473.764 120.490, 470.534 115.589 C 467.304 110.688, 461.069 102.138, 456.678 96.589 C 452.287 91.040, 443.476 81.281, 437.097 74.903 C 430.719 68.524, 420.960 59.713, 415.411 55.322 C 409.862 50.931, 401.312 44.696, 396.411 41.466 C 391.510 38.236, 381.200 32.343, 373.500 28.370 C 365.800 24.396, 355.930 19.734, 351.566 18.010 C 347.202 16.285, 339.552 13.579, 334.566 11.997 C 329.580 10.414, 321.900 8.226, 317.500 7.135 C 313.100 6.044, 305.675 4.464, 301 3.624 C 296.325 2.785, 288.130 1.626, 282.789 1.049 C 277.449 0.472, 264.624 0.058, 254.289 0.130 C 243.955 0.201, 232.125 0.638, 228 1.100 M 226.500 61.945 C 220.450 62.963, 211.773 64.755, 207.219 65.927 C 202.664 67.099, 194.789 69.566, 189.719 71.408 C 184.648 73.251, 176.574 76.578, 171.776 78.803 C 166.978 81.027, 158.878 85.426, 153.776 88.577 C 148.674 91.729, 140.900 97.032, 136.500 100.363 C 132.100 103.693, 123.532 111.386, 117.459 117.459 C 111.386 123.532, 103.693 132.100, 100.363 136.500 C 97.032 140.900, 91.729 148.674, 88.577 153.776 C 85.426 158.878, 81.044 166.953, 78.841 171.722 C 76.638 176.491, 73.322 184.467, 71.472 189.446 C 69.622 194.426, 66.993 203, 65.629 208.500 C 64.265 214, 62.440 223.351, 61.574 229.280 C 60.659 235.551, 60 246.729, 60 256 C 60 265.271, 60.659 276.449, 61.574 282.720 C 62.440 288.649, 64.265 298, 65.629 303.500 C 66.993 309, 69.622 317.574, 71.472 322.554 C 73.322 327.533, 76.638 335.509, 78.841 340.278 C 81.044 345.047, 85.426 353.122, 88.577 358.224 C 91.729 363.326, 97.032 371.100, 100.363 375.500 C 103.693 379.900, 111.386 388.468, 117.459 394.541 C 123.532 400.614, 132.100 408.307, 136.500 411.637 C 140.900 414.968, 148.674 420.271, 153.776 423.423 C 158.878 426.574, 166.978 430.973, 171.776 433.197 C 176.574 435.422, 184.648 438.749, 189.719 440.592 C 194.789 442.434, 202.664 444.897, 207.219 446.066 C 211.773 447.234, 220.900 449.041, 227.500 450.082 C 235.712 451.377, 244.708 451.974, 256 451.974 C 267.292 451.974, 276.288 451.377, 284.500 450.082 C 291.100 449.041, 300.227 447.234, 304.781 446.066 C 309.336 444.897, 317.211 442.434, 322.281 440.592 C 327.352 438.749, 335.325 435.458, 340 433.278 C 344.675 431.097, 352.731 426.736, 357.903 423.586 C 363.074 420.435, 370.949 415.087, 375.403 411.701 C 379.856 408.315, 388.460 400.585, 394.522 394.522 C 400.585 388.460, 408.278 379.900, 411.618 375.500 C 414.959 371.100, 420.271 363.326, 423.423 358.224 C 426.574 353.122, 430.973 345.022, 433.197 340.224 C 435.422 335.426, 438.749 327.352, 440.592 322.281 C 442.434 317.211, 444.897 309.336, 446.066 304.781 C 447.234 300.227, 449.041 291.100, 450.082 284.500 C 451.123 277.900, 451.980 267.729, 451.987 261.898 C 451.998 252.528, 451.736 250.901, 449.730 247.898 C 448.482 246.029, 445.894 243.688, 443.980 242.695 C 441.606 241.465, 439.113 241.032, 436.136 241.335 C 433.735 241.580, 430.585 242.664, 429.136 243.745 C 427.686 244.825, 425.713 247.053, 424.750 248.696 C 423.572 250.708, 422.823 254.757, 422.457 261.092 C 422.158 266.266, 421.436 274.100, 420.852 278.500 C 420.268 282.900, 418.713 290.857, 417.395 296.183 C 416.077 301.509, 413.619 309.609, 411.933 314.183 C 410.246 318.757, 406.403 327.225, 403.393 333 C 400.384 338.775, 394.901 347.756, 391.210 352.957 C 387.520 358.159, 379.531 367.384, 373.457 373.457 C 367.384 379.531, 358.159 387.520, 352.957 391.210 C 347.756 394.901, 338.775 400.384, 333 403.393 C 327.225 406.403, 318.772 410.241, 314.216 411.920 C 309.660 413.600, 302.235 415.920, 297.716 417.075 C 293.197 418.229, 285.450 419.836, 280.500 420.645 C 275.334 421.490, 264.897 422.116, 256 422.116 C 247.103 422.116, 236.666 421.490, 231.500 420.645 C 226.550 419.836, 218.803 418.229, 214.284 417.075 C 209.765 415.920, 202.340 413.600, 197.784 411.920 C 193.228 410.241, 184.775 406.403, 179 403.393 C 173.225 400.384, 164.244 394.901, 159.043 391.210 C 153.841 387.520, 144.616 379.531, 138.543 373.457 C 132.469 367.384, 124.480 358.159, 120.790 352.957 C 117.099 347.756, 111.616 338.775, 108.607 333 C 105.597 327.225, 101.759 318.772, 100.080 314.216 C 98.400 309.660, 96.080 302.235, 94.925 297.716 C 93.771 293.197, 92.164 285.450, 91.355 280.500 C 90.510 275.334, 89.884 264.897, 89.884 256 C 89.884 247.103, 90.510 236.666, 91.355 231.500 C 92.164 226.550, 93.771 218.803, 94.925 214.284 C 96.080 209.765, 98.400 202.340, 100.080 197.784 C 101.759 193.228, 105.597 184.775, 108.607 179 C 111.616 173.225, 117.099 164.244, 120.790 159.043 C 124.480 153.841, 132.469 144.616, 138.543 138.543 C 144.616 132.469, 153.841 124.480, 159.043 120.790 C 164.244 117.099, 173.225 111.616, 179 108.607 C 184.775 105.597, 193.228 101.759, 197.784 100.080 C 202.340 98.400, 209.765 96.080, 214.284 94.925 C 218.803 93.771, 226.550 92.165, 231.500 91.357 C 236.450 90.550, 247.025 89.869, 255 89.846 C 262.975 89.822, 273.325 90.326, 278 90.966 C 282.675 91.605, 290.857 93.225, 296.183 94.565 C 301.509 95.905, 309.609 98.381, 314.183 100.067 C 318.757 101.754, 327.225 105.595, 333 108.602 C 338.775 111.610, 347.550 116.965, 352.500 120.504 C 357.450 124.042, 365.198 130.344, 369.719 134.509 C 374.239 138.673, 380.588 145.325, 383.828 149.290 C 387.068 153.256, 392.876 161.240, 396.736 167.033 C 400.973 173.394, 404.810 178.048, 406.423 178.783 C 407.892 179.452, 411.141 180, 413.643 180 C 416.145 180, 419.386 179.287, 420.846 178.416 C 422.306 177.544, 424.400 175.632, 425.500 174.166 C 426.982 172.191, 427.500 169.945, 427.500 165.500 C 427.500 159.756, 427.208 159.060, 420.645 149.162 C 416.875 143.476, 410.539 134.926, 406.564 130.162 C 402.590 125.398, 395.497 117.872, 390.802 113.438 C 386.106 109.004, 378.895 102.840, 374.777 99.741 C 370.659 96.642, 363.062 91.527, 357.895 88.375 C 352.728 85.222, 344.450 80.750, 339.500 78.435 C 334.550 76.120, 326.531 72.827, 321.680 71.116 C 316.829 69.406, 309.179 67.066, 304.680 65.915 C 300.181 64.765, 292.900 63.140, 288.500 62.304 C 283.424 61.339, 272.643 60.657, 259 60.438 C 241.513 60.158, 235.447 60.439, 226.500 61.945 M 243.814 165.009 C 240.687 165.506, 235.287 166.647, 231.814 167.545 C 228.341 168.443, 222.211 170.696, 218.192 172.551 C 214.173 174.406, 207.873 177.926, 204.192 180.375 C 200.511 182.823, 194.302 188.128, 190.394 192.163 C 186.486 196.198, 181.579 202.174, 179.490 205.443 C 177.401 208.712, 174.183 214.651, 172.339 218.642 C 170.495 222.632, 168.009 229.858, 166.813 234.699 C 165.168 241.364, 164.640 246.534, 164.640 256 C 164.640 265.466, 165.168 270.636, 166.813 277.301 C 168.009 282.142, 170.495 289.368, 172.339 293.358 C 174.183 297.349, 177.401 303.288, 179.490 306.557 C 181.579 309.826, 186.486 315.802, 190.394 319.837 C 194.302 323.872, 200.511 329.177, 204.192 331.625 C 207.873 334.074, 214.262 337.637, 218.391 339.545 C 222.519 341.452, 229.858 343.991, 234.699 345.187 C 241.364 346.832, 246.534 347.360, 256 347.360 C 265.466 347.360, 270.636 346.832, 277.301 345.187 C 282.142 343.991, 289.368 341.505, 293.358 339.661 C 297.349 337.817, 303.288 334.599, 306.557 332.510 C 309.826 330.421, 315.802 325.514, 319.837 321.606 C 323.872 317.698, 329.177 311.489, 331.625 307.808 C 334.074 304.127, 337.637 297.738, 339.545 293.609 C 341.452 289.481, 343.991 282.142, 345.187 277.301 C 346.832 270.636, 347.360 265.466, 347.360 256 C 347.360 246.534, 346.832 241.364, 345.187 234.699 C 343.991 229.858, 341.452 222.519, 339.545 218.391 C 337.637 214.262, 334.074 207.873, 331.625 204.192 C 329.177 200.511, 323.872 194.302, 319.837 190.394 C 315.802 186.486, 309.826 181.579, 306.557 179.490 C 303.288 177.401, 297.356 174.186, 293.375 172.347 C 289.393 170.507, 282.393 168.099, 277.818 166.995 C 273.243 165.892, 265 164.790, 259.500 164.548 C 254 164.305, 246.941 164.513, 243.814 165.009 M 240.656 195.581 C 237.442 196.360, 231.247 198.851, 226.890 201.118 C 221.544 203.899, 216.734 207.473, 212.103 212.103 C 207.485 216.721, 203.899 221.545, 201.140 226.847 C 198.885 231.182, 196.363 237.602, 195.535 241.114 C 194.707 244.626, 194.030 251.325, 194.030 256 C 194.030 260.675, 194.707 267.374, 195.535 270.886 C 196.363 274.398, 198.885 280.818, 201.140 285.153 C 203.899 290.455, 207.485 295.279, 212.103 299.897 C 216.721 304.515, 221.545 308.101, 226.847 310.860 C 231.182 313.115, 237.602 315.637, 241.114 316.465 C 244.626 317.293, 251.325 317.970, 256 317.970 C 260.675 317.970, 267.374 317.293, 270.886 316.465 C 274.398 315.637, 280.818 313.115, 285.153 310.860 C 290.455 308.101, 295.279 304.515, 299.897 299.897 C 304.515 295.279, 308.101 290.455, 310.860 285.153 C 313.115 280.818, 315.637 274.398, 316.465 270.886 C 317.293 267.374, 317.970 260.675, 317.970 256 C 317.970 251.325, 317.293 244.626, 316.465 241.114 C 315.637 237.602, 313.115 231.182, 310.860 226.847 C 308.101 221.545, 304.515 216.721, 299.897 212.103 C 295.279 207.485, 290.455 203.899, 285.153 201.140 C 280.818 198.885, 274.398 196.363, 270.886 195.535 C 267.374 194.707, 260.450 194.060, 255.500 194.098 C 250.550 194.136, 243.870 194.803, 240.656 195.581 M 0.423 256.500 C 0.424 268.050, 0.570 272.638, 0.747 266.696 C 0.924 260.753, 0.923 251.303, 0.745 245.696 C 0.567 240.088, 0.422 244.950, 0.423 256.500" stroke="none" fill="#b4434c" fill-rule="evenodd"/></svg>