<svg xmlns="http://www.w3.org/2000/svg" width="2560" height="1020" viewBox="0 0 2560 1020" version="1.1"><path d="" stroke="none" fill="#ccccdc" fill-rule="evenodd"/><path d="M 0 430 L 0 860 3 860 C 5.533 860, 6 860.389, 6 862.500 C 6 863.875, 5.650 865, 5.223 865 C 4.795 865, 3.445 864.299, 2.223 863.443 L -0 861.887 -0 938.598 L 0 1015.310 2.113 1013.405 C 3.275 1012.357, 10.881 1004.300, 19.014 995.500 C 27.148 986.700, 38.624 973.875, 44.517 967 C 50.410 960.125, 58.548 950.101, 62.603 944.724 C 66.658 939.347, 70.256 933.827, 70.600 932.458 C 71.054 930.649, 69.942 927.384, 66.537 920.522 C 63.959 915.327, 60.051 908.247, 57.854 904.788 C 55.657 901.330, 52.764 897.582, 51.426 896.460 L 48.994 894.420 50.491 883.065 L 51.989 871.709 46.410 865.355 C 41.340 859.580, 40.473 859, 36.915 859 C 34.762 859, 33 858.759, 33 858.465 C 33 858.170, 33.679 856.893, 34.509 855.627 C 35.951 853.426, 35.862 853.241, 32.509 851.435 C 29.080 849.588, 29 849.404, 29 843.372 L 29 837.199 25.250 836.203 L 21.500 835.207 26.046 835.103 C 29.597 835.023, 32.504 835.984, 39.336 839.500 C 44.146 841.975, 48.963 844, 50.041 844 C 51.118 844, 52 843.605, 52 843.122 C 52 842.639, 51.319 840.614, 50.487 838.622 C 49.654 836.630, 49.149 835, 49.364 835 C 49.580 835, 51.371 835.675, 53.346 836.500 C 55.320 837.325, 57.175 838, 57.468 838 C 57.761 838, 58 836.297, 58 834.215 C 58 830.542, 57.800 830.329, 51.250 827.051 L 44.500 823.674 48.250 822.201 L 52 820.729 52 810.076 L 52 799.424 56.500 795.662 L 61 791.900 61 795.450 C 61 798.962, 61.045 799, 65.250 798.985 C 69.380 798.971, 69.599 798.801, 73 793 C 74.925 789.716, 77.008 787.023, 77.628 787.015 C 78.248 787.007, 80.371 787.675, 82.346 788.500 C 84.320 789.325, 86.175 790, 86.468 790 C 86.761 790, 87 788.188, 87 785.974 L 87 781.949 84 783.500 C 81 785.051, 81 785.051, 81 782.142 C 81 779.552, 81.605 778.987, 86.500 777 C 89.525 775.772, 92 774.651, 92 774.509 C 92 774.366, 94.659 763.056, 97.908 749.375 C 101.158 735.694, 104.785 719.550, 105.968 713.500 C 107.151 707.450, 108.819 700.250, 109.673 697.500 C 110.527 694.750, 112.818 689.575, 114.764 686 C 116.710 682.425, 121.140 674.688, 124.609 668.808 C 128.078 662.927, 132.564 654.844, 134.577 650.847 C 136.590 646.849, 138.800 641.986, 139.488 640.039 C 140.177 638.093, 143.636 632.225, 147.175 627 C 150.715 621.775, 156.624 611.570, 160.306 604.321 C 166.516 592.095, 167 590.676, 167 584.675 C 167 578.991, 167.615 576.893, 172.081 567.354 C 174.876 561.384, 179.834 550.346, 183.098 542.825 C 186.363 535.304, 192.411 519.854, 196.539 508.493 C 200.666 497.131, 205.864 482.390, 208.089 475.734 C 210.314 469.079, 213.894 456.179, 216.046 447.067 C 218.197 437.955, 222.475 421.275, 225.552 410 C 228.630 398.725, 233.536 379.600, 236.457 367.500 L 241.766 345.500 240.380 311.586 C 239.618 292.934, 239.108 277.608, 239.247 277.529 C 239.386 277.450, 241.433 275.895, 243.796 274.072 C 246.159 272.250, 247.959 270.629, 247.796 270.471 C 247.633 270.313, 242.775 270.762, 237 271.469 C 231.225 272.176, 226.337 272.609, 226.137 272.431 C 225.938 272.253, 225.129 269.271, 224.340 265.804 C 223.551 262.337, 222.641 251.787, 222.319 242.360 L 221.733 225.221 224.617 223.413 C 226.202 222.419, 227.579 221.578, 227.675 221.544 C 227.772 221.510, 227.180 217.931, 226.361 213.591 L 224.871 205.700 229.684 200.813 C 233.667 196.769, 234.239 195.754, 232.999 194.929 C 232.175 194.381, 230.713 193.482, 229.750 192.931 C 228.239 192.067, 228 190.321, 228 180.161 C 228 169.358, 228.287 167.541, 231.500 157.999 C 233.426 152.282, 235.676 144.338, 236.500 140.345 C 237.325 136.351, 237.993 130.703, 237.985 127.792 C 237.971 123.163, 237.063 120.789, 230.735 108.847 C 223.710 95.591, 223.052 94.734, 208.075 79.347 C 199.591 70.631, 190.008 60.182, 186.779 56.128 C 183.551 52.073, 179.803 46.571, 178.450 43.901 C 175.990 39.047, 175.990 39.047, 177.877 34.080 L 179.765 29.114 177.030 28.160 C 174.885 27.413, 174.158 26.376, 173.659 23.353 C 173.308 21.234, 173.013 17.475, 173.002 15 C 172.991 12.525, 172.699 8.137, 172.352 5.250 L 171.721 -0 85.861 -0 L 0 0 0 430 M 222.571 2.851 C 223.497 4.419, 226.560 8.776, 229.378 12.532 C 233.949 18.628, 235.123 19.569, 240.283 21.276 C 245.676 23.060, 246.408 23.695, 251.128 30.689 L 256.189 38.190 253.313 45.845 L 250.437 53.500 245.218 53.802 C 241.974 53.990, 240.013 54.558, 240.036 55.302 C 240.055 55.961, 240.716 59.200, 241.504 62.500 C 242.291 65.800, 243.241 72.263, 243.615 76.862 L 244.293 85.225 246.791 79.969 C 248.165 77.078, 252.073 71.775, 255.475 68.184 C 259.822 63.596, 262.144 61.841, 263.289 62.281 C 264.185 62.625, 266.056 65.150, 267.446 67.894 C 268.836 70.637, 271.269 76.170, 272.853 80.191 C 275.691 87.393, 275.759 88.048, 277.534 125 L 279.336 162.500 276.031 186.184 L 272.727 209.868 275.864 213.828 C 278.018 216.548, 279 218.876, 279 221.265 C 279 223.177, 278.309 231.437, 277.463 239.621 C 276.618 247.804, 275.290 258.100, 274.513 262.500 C 273.735 266.900, 271.957 275.450, 270.561 281.500 C 269.166 287.550, 266.242 303.075, 264.063 316 C 261.885 328.925, 258.451 350.525, 256.433 364 C 252.914 387.495, 252.584 388.869, 248.396 397.500 C 245.811 402.826, 242.808 411.398, 241.038 418.500 C 239.393 425.100, 234.395 445.350, 229.931 463.500 L 221.813 496.500 208.811 524.855 C 201.660 540.450, 192.453 561.600, 188.351 571.855 C 184.249 582.110, 178.150 595.450, 174.798 601.500 C 171.445 607.550, 166.152 616.578, 163.035 621.561 C 159.918 626.545, 156.577 632.600, 155.609 635.018 C 154.642 637.436, 150.215 646.183, 145.771 654.457 C 141.328 662.731, 133.085 677.827, 127.454 688.004 L 117.217 706.508 114.541 730.004 C 113.069 742.927, 111.005 759.998, 109.955 767.939 C 108.905 775.881, 108.157 782.490, 108.293 782.626 C 108.429 782.763, 110.728 783.812, 113.400 784.957 L 118.259 787.040 121.879 784.339 C 123.871 782.853, 127.719 779.807, 130.431 777.569 C 135.284 773.565, 135.515 773.492, 144.897 773 C 154.421 772.500, 154.433 772.497, 156.726 769.087 C 157.988 767.210, 159.961 762.710, 161.111 759.087 C 162.520 754.650, 163.452 748.094, 163.968 739 C 164.389 731.575, 165.295 723.367, 165.983 720.760 C 166.971 717.011, 167.992 715.564, 170.866 713.842 C 172.865 712.645, 176.427 710.123, 178.783 708.239 C 181.138 706.354, 185.362 701.367, 188.169 697.156 C 190.976 692.945, 193.727 689.050, 194.283 688.500 C 194.962 687.828, 195.019 687.992, 194.456 689 C 193.996 689.825, 191.673 693.554, 189.293 697.286 C 186.914 701.018, 182.275 707.460, 178.984 711.601 L 173 719.131 173 732.997 L 173 746.863 166.403 760.290 C 162.775 767.675, 159.737 774.873, 159.653 776.285 C 159.500 778.853, 159.500 778.853, 156.500 777.009 C 153.570 775.209, 153.249 775.216, 142.666 777.333 L 131.831 779.500 128.093 788.500 C 126.038 793.450, 123.938 797.497, 123.428 797.493 C 122.918 797.489, 118.973 796.856, 114.662 796.086 L 106.824 794.687 102.955 799.093 C 100.827 801.517, 99.066 804.106, 99.043 804.846 C 99.019 805.586, 99.944 807.517, 101.097 809.136 L 103.194 812.081 108.582 809.041 C 111.545 807.368, 114.202 806, 114.485 806 C 114.768 806, 115 806.933, 115 808.074 C 115 809.547, 113.842 810.635, 111.009 811.824 C 107.065 813.480, 107.024 813.553, 107.485 818 C 107.742 820.475, 108.224 825.545, 108.557 829.266 C 109.115 835.496, 109.399 836.155, 112.138 837.571 L 115.113 839.110 107.806 847.078 C 103.788 851.460, 98.429 857.398, 95.897 860.273 C 92.971 863.596, 89.237 869.926, 85.647 877.648 C 80.027 889.739, 80 889.842, 80 899.345 L 80 908.893 86.750 919.936 L 93.500 930.978 100.828 930.989 C 108.032 931, 108.324 931.103, 117.990 937.043 C 127.824 943.086, 127.824 943.086, 128.392 947.793 C 128.705 950.382, 129.077 954.265, 129.220 956.422 L 129.479 960.344 123.535 961.990 C 118.390 963.415, 117.409 964.082, 116.239 966.950 C 115.495 968.772, 115.093 970.766, 115.345 971.382 C 115.597 971.997, 118.854 974.054, 122.582 975.952 L 129.360 979.405 145.930 977.717 C 155.043 976.789, 171.500 975.116, 182.500 973.999 C 193.500 972.882, 203.963 971.730, 205.750 971.439 C 208.955 970.917, 209 970.833, 209 965.455 C 209 962.455, 209.338 960, 209.750 959.999 C 210.162 959.999, 214.192 960.731, 218.705 961.627 L 226.910 963.256 234.705 958.207 L 242.500 953.158 244.327 957.169 C 245.332 959.375, 245.957 961.377, 245.716 961.618 C 245.475 961.859, 244.061 961.593, 242.574 961.028 C 241.087 960.463, 239.146 960, 238.261 960 C 236.950 960, 237.059 960.434, 238.850 962.341 C 240.060 963.628, 243.280 965.726, 246.008 967.004 L 250.967 969.326 260.233 967.354 L 269.500 965.381 269.322 957.766 C 269.215 953.229, 267.850 944.766, 265.944 936.826 C 264.184 929.497, 262.651 923.386, 262.536 923.247 C 262.422 923.108, 259.709 923.896, 256.508 924.997 C 253.306 926.099, 250.490 927, 250.250 927 C 250.010 927, 251.633 924.827, 253.857 922.171 L 257.900 917.342 253.995 912.617 C 250.769 908.713, 250.244 907.488, 250.973 905.570 C 251.459 904.293, 252.356 901.393, 252.967 899.124 C 254.049 895.105, 254.187 895, 258.368 895 C 262.505 895, 262.738 894.831, 264.898 890.250 C 266.129 887.638, 267.938 884.522, 268.916 883.327 C 269.895 882.132, 272.334 880.469, 274.337 879.633 C 276.339 878.796, 281.133 876.070, 284.989 873.576 C 291.967 869.061, 292 869.019, 292 864.520 C 292 860.164, 292.109 860, 295 860 C 297.933 860, 298 860.111, 298 865 C 298 867.828, 298.456 870, 299.051 870 C 299.629 870, 306.356 868.425, 314 866.500 C 321.644 864.575, 328.598 863, 329.454 863 C 330.310 863, 336.745 866.199, 343.755 870.109 C 350.765 874.018, 360.300 879.756, 364.943 882.859 C 369.587 885.961, 373.842 889.259, 374.398 890.187 C 375.208 891.536, 374.369 893.070, 370.205 897.858 C 367.342 901.149, 365 904.103, 365 904.421 C 365 904.739, 367.363 904.999, 370.250 904.997 C 375.480 904.994, 375.509 904.977, 378 900.307 C 379.375 897.729, 380.950 895.482, 381.500 895.315 C 382.050 895.148, 383.776 896.032, 385.337 897.280 C 388.173 899.550, 388.173 899.550, 387.209 907.525 C 386.330 914.793, 386.427 915.803, 388.306 918.915 L 390.367 922.329 387.933 921.664 C 386.595 921.298, 383.891 920.729, 381.925 920.400 C 378.419 919.812, 378.310 919.895, 376.313 924.702 L 374.275 929.604 364.388 931.548 C 354.838 933.425, 354.291 933.679, 348.384 938.996 C 345.019 942.023, 339.755 946.003, 336.686 947.840 C 333.616 949.678, 327.023 952.940, 322.036 955.090 C 313.802 958.641, 312.165 959.001, 304.234 959.010 L 295.500 959.021 281.692 970.010 L 267.883 981 259.192 981.012 L 250.500 981.025 248.181 984.603 C 246.379 987.384, 245.376 988.063, 243.681 987.649 C 242.481 987.355, 238.502 986.569, 234.837 985.901 C 228.174 984.686, 228.174 984.686, 225.778 987.472 C 223.865 989.695, 222.288 990.362, 217.952 990.779 C 213.231 991.232, 211.640 992.012, 205.781 996.746 C 200.829 1000.747, 198.758 1003.162, 197.976 1005.846 C 197.390 1007.856, 196.642 1011.862, 196.315 1014.750 C 195.860 1018.766, 196.035 1020, 197.060 1020 C 197.796 1020, 204.947 1016.436, 212.949 1012.080 C 226.377 1004.771, 228.886 1003.794, 245.462 999.424 C 262.299 994.985, 265.338 993.786, 293.962 980.298 C 319.606 968.214, 326.824 965.263, 339 961.882 C 346.975 959.667, 358.900 956.577, 365.500 955.015 C 372.100 953.452, 385.825 950.540, 396 948.543 C 406.175 946.545, 415.625 944.658, 417 944.348 L 419.500 943.784 417 945.541 C 415.625 946.508, 412.813 948.898, 410.750 950.852 C 408.688 952.807, 407 955.215, 407 956.203 C 407 957.885, 408.679 958.004, 433.250 958.065 C 447.688 958.101, 476.150 958.515, 496.500 958.984 C 530.641 959.772, 536.436 959.646, 571.500 957.352 C 592.400 955.985, 610.063 954.685, 610.750 954.464 C 611.574 954.200, 612.002 951.921, 612.006 947.781 C 612.009 944.327, 612.454 939.904, 612.996 937.954 C 613.538 936.003, 614.578 933.592, 615.308 932.594 C 616.572 930.865, 616.883 930.907, 622.004 933.502 C 625.163 935.103, 629.744 936.438, 633.127 936.745 L 638.880 937.267 639.190 932.383 L 639.500 927.500 641.750 931.710 C 642.987 934.026, 644 937.253, 644 938.883 C 644 941.349, 643.455 942.016, 640.750 942.866 C 638.962 943.428, 635.475 944.399, 633 945.023 C 629.825 945.825, 626.921 947.681, 623.135 951.330 C 620.185 954.173, 616.472 958.255, 614.885 960.400 C 613.298 962.545, 612 965.133, 612 966.150 C 612 967.168, 612.514 968, 613.141 968 C 613.769 968, 623.106 964.899, 633.891 961.109 C 644.676 957.318, 658.450 952.837, 664.500 951.151 C 670.550 949.464, 683.150 946.466, 692.500 944.488 C 701.850 942.511, 716.475 939.132, 725 936.981 C 733.525 934.829, 747.250 931.078, 755.500 928.644 C 768.764 924.731, 770.691 924.388, 772.150 925.675 C 773.612 926.964, 774.411 926.788, 779.150 924.138 C 782.093 922.492, 793.142 918.179, 803.703 914.553 C 814.265 910.928, 827.687 905.958, 833.529 903.511 C 839.371 901.063, 849.630 897.496, 856.326 895.585 C 863.022 893.674, 873.675 890.916, 880 889.458 C 886.325 888, 895.888 886.565, 901.250 886.270 L 911 885.733 911 881.375 L 911 877.017 923.250 877.571 C 929.988 877.876, 939.550 878.556, 944.500 879.082 C 949.450 879.609, 956.708 880.739, 960.629 881.593 L 967.758 883.147 974.667 879.668 C 981.432 876.261, 981.613 876.067, 983.407 870.344 C 984.414 867.130, 986.127 862.110, 987.214 859.188 C 988.301 856.267, 990.770 852.297, 992.701 850.366 L 996.212 846.855 993.932 844.427 C 992.678 843.092, 991.363 842, 991.010 842 C 990.657 842, 989.382 843.755, 988.176 845.901 L 985.984 849.802 980.868 847.858 C 978.055 846.789, 975.635 846.046, 975.492 846.207 C 975.348 846.368, 974.321 848.012, 973.209 849.860 C 971.357 852.938, 971.099 853.064, 970.128 851.360 C 969.544 850.337, 968.654 848.883, 968.149 848.128 C 967.401 847.011, 964.343 847.720, 951.616 851.961 L 936 857.166 936 861.447 L 936 865.728 940.640 866.364 C 943.191 866.714, 946.904 867.035, 948.890 867.079 L 952.500 867.158 947.500 869.566 C 944.658 870.935, 940.665 871.980, 938.250 871.987 C 934.226 871.999, 934 871.846, 934 869.105 C 934 867.513, 933.082 863.238, 931.960 859.605 C 929.976 853.184, 929.826 853, 926.566 853 L 923.213 853 924.150 857.171 C 925.070 861.265, 925 861.432, 920.395 866.107 L 915.703 870.871 906.871 866.435 C 902.014 863.996, 897.693 862.003, 897.270 862.007 C 896.846 862.011, 895.395 863.636, 894.045 865.618 C 892.694 867.601, 890.543 869.909, 889.264 870.747 C 887.984 871.585, 886.681 872.014, 886.367 871.700 C 886.053 871.386, 886.571 868.798, 887.517 865.948 C 888.871 861.874, 888.971 860.600, 887.985 859.991 C 887.296 859.565, 884.112 858.660, 880.910 857.981 C 875.126 856.753, 875.022 856.773, 864.794 861.015 C 854.999 865.077, 854.163 865.665, 847.544 873.154 C 843.718 877.482, 839.710 882.410, 838.636 884.105 C 837.002 886.687, 836.913 887.332, 838.093 888.078 C 838.867 888.568, 840.962 888.976, 842.750 888.985 C 844.538 888.993, 846 889.231, 846 889.514 C 846 889.796, 845.495 890.836, 844.878 891.824 C 843.821 893.516, 843.298 893.534, 835.898 892.123 C 831.577 891.300, 827.831 890.835, 827.576 891.091 C 827.320 891.347, 827.498 893.273, 827.971 895.371 L 828.831 899.186 821.666 898.521 C 817.725 898.156, 813.712 897.633, 812.750 897.361 C 811.356 896.966, 811 897.489, 811 899.933 L 811 903 802 903 C 793.667 903, 793 902.852, 793 901 C 793 899.288, 793.667 899, 797.632 899 C 801.767 899, 802.731 898.532, 806.632 894.632 C 809.034 892.229, 811 889.323, 811 888.174 C 811 886.457, 809.796 885.731, 804.250 884.100 C 800.538 883.008, 796.263 881.815, 794.750 881.449 L 792 880.783 792 887.892 C 792 891.801, 791.812 895, 791.583 895 C 791.354 895, 789.216 894.164, 786.833 893.143 C 782.590 891.325, 782.239 891.328, 769.901 893.322 L 757.301 895.358 755.854 900.929 L 754.407 906.500 745.954 907 L 737.500 907.500 737.204 912.032 C 736.913 916.496, 736.833 916.590, 731.861 918.356 C 729.086 919.341, 726.620 919.953, 726.382 919.716 C 726.144 919.478, 726.845 917.194, 727.939 914.642 C 729.034 912.089, 729.562 910, 729.115 910 C 728.667 910, 726.320 911.414, 723.900 913.143 C 721.480 914.872, 717.362 917.835, 714.750 919.728 C 712.138 921.621, 710 922.715, 710 922.159 C 710 921.603, 714.950 916.212, 721 910.178 C 729.579 901.621, 732 898.612, 732 896.505 L 732 893.802 728.484 895.877 C 725.046 897.905, 724.901 897.911, 721.954 896.118 L 718.940 894.285 724.547 890.053 C 727.630 887.724, 729.994 885.661, 729.801 885.467 C 729.607 885.274, 725.650 883.715, 721.009 882.003 C 716.367 880.292, 711.653 879.144, 710.534 879.453 C 709.416 879.762, 707.715 880.622, 706.755 881.364 C 705.098 882.645, 705.107 882.997, 706.930 888.297 L 708.851 893.881 704.426 897.507 L 700 901.134 700 894.214 C 700 890.407, 700.290 884.515, 700.645 881.118 L 701.291 874.943 707.145 871.329 C 712.649 867.933, 713 867.484, 713 863.858 L 713 860 721 860 C 729 860, 729 860, 729.032 857.250 L 729.063 854.500 731.282 857.036 C 732.502 858.431, 734.934 861.356, 736.687 863.536 L 739.874 867.500 745.687 861.818 L 751.500 856.136 763 858.046 C 769.325 859.096, 775.063 859.965, 775.750 859.978 C 776.568 859.992, 777 858.445, 777 855.500 C 777 851.077, 777.056 851.001, 780.250 851.060 C 782.038 851.093, 790.236 851.488, 798.470 851.939 C 810.675 852.606, 813.836 852.498, 815.583 851.354 C 816.762 850.581, 820.825 849.302, 824.613 848.510 C 828.401 847.719, 833.997 846.211, 837.048 845.159 C 840.100 844.107, 844.600 842.245, 847.048 841.020 C 849.497 839.796, 853.774 837.251, 856.554 835.366 C 861.530 831.990, 861.663 831.961, 865.272 833.469 C 867.287 834.311, 869.175 835, 869.468 835 C 869.761 835, 870 833.425, 870 831.500 C 870 828.325, 870.263 828, 872.829 828 C 874.384 828, 877.647 826.679, 880.079 825.065 C 882.510 823.451, 886.051 820.526, 887.946 818.565 C 891.358 815.035, 891.476 815, 899.784 815 L 908.176 815 907.481 810.888 L 906.786 806.776 913.643 807.368 C 917.414 807.694, 926.208 808.247, 933.185 808.597 L 945.871 809.233 963.935 795.051 C 980.822 781.793, 982 780.654, 982 777.577 C 982 774.431, 982.351 774.128, 990 770.681 C 997.453 767.322, 998 766.868, 998 764.038 C 998 761, 998 761, 1004.007 761 L 1010.014 761 1009.373 767.891 L 1008.733 774.782 1011.617 775.353 C 1013.202 775.667, 1016.633 776.217, 1019.240 776.574 C 1023.575 777.169, 1024.286 776.956, 1027.550 774.090 C 1029.600 772.290, 1031.626 771.263, 1032.310 771.676 C 1032.964 772.072, 1035.579 773.882, 1038.119 775.698 C 1040.660 777.514, 1043.254 779, 1043.883 779 C 1044.512 779, 1045.849 778.487, 1046.853 777.860 C 1048.370 776.912, 1050.874 777.849, 1061.662 783.402 L 1074.646 790.084 1085.073 788.792 L 1095.500 787.500 1098 777.873 C 1100.428 768.522, 1100.678 768.075, 1106.689 762.292 C 1110.092 759.017, 1113.184 755.116, 1113.559 753.622 C 1113.933 752.129, 1113.992 750.659, 1113.689 750.356 C 1113.386 750.053, 1111.786 750.604, 1110.134 751.580 C 1107.151 753.342, 1107.063 753.327, 1098.091 749.484 C 1093.120 747.355, 1089.202 745.465, 1089.383 745.284 C 1089.564 745.103, 1097.647 745.408, 1107.345 745.963 L 1124.978 746.972 1133.254 752.480 L 1141.530 757.987 1159.470 755.005 C 1169.337 753.365, 1179.772 751.336, 1182.658 750.497 C 1185.545 749.658, 1188.524 748.090, 1189.279 747.012 C 1190.437 745.359, 1193.410 744.709, 1208.326 742.853 L 1226 740.653 1226 735.273 C 1226 730.248, 1226.360 729.447, 1231.463 723.132 L 1236.926 716.370 1258.733 714.567 L 1280.539 712.764 1298.020 718.455 C 1308.995 722.029, 1318.058 724.363, 1322.375 724.729 L 1329.250 725.311 1327.459 722.577 L 1325.667 719.843 1337.705 707.806 L 1349.742 695.768 1359.860 697.969 L 1369.977 700.171 1376.302 698.066 L 1382.627 695.961 1384.688 689.730 L 1386.749 683.500 1388.459 687.420 C 1389.399 689.575, 1391.041 694.750, 1392.108 698.920 C 1393.174 703.089, 1394.555 710.635, 1395.176 715.688 C 1395.797 720.741, 1396.584 725.328, 1396.926 725.880 C 1397.267 726.432, 1400.408 727.344, 1403.905 727.907 C 1407.403 728.471, 1410.491 729.158, 1410.767 729.434 C 1411.043 729.710, 1410.719 731.263, 1410.047 732.885 C 1408.870 735.729, 1408.532 735.857, 1400.663 736.434 C 1396.173 736.763, 1390.272 737.137, 1387.550 737.266 L 1382.600 737.500 1380.760 743.764 L 1378.920 750.027 1366.438 749.360 L 1353.955 748.693 1350.392 752.855 C 1347.670 756.035, 1343.704 758.542, 1333.594 763.472 C 1326.315 767.022, 1316.373 772.756, 1311.500 776.213 C 1306.627 779.671, 1302.384 782.436, 1302.070 782.357 C 1301.757 782.278, 1299.112 781.895, 1296.194 781.505 L 1290.888 780.797 1291.194 784.603 L 1291.500 788.409 1281.872 790.567 C 1273.161 792.519, 1271.909 793.095, 1268.728 796.612 C 1266.795 798.750, 1261.677 802.589, 1257.356 805.143 C 1253.035 807.697, 1244.093 812.250, 1237.485 815.261 C 1230.877 818.272, 1220.490 822.568, 1214.403 824.808 C 1208.316 827.048, 1198.873 830.016, 1193.418 831.404 C 1187.963 832.792, 1180.350 835.016, 1176.500 836.347 C 1172.650 837.677, 1165.883 840.368, 1161.463 842.327 C 1154.899 845.237, 1149.280 846.606, 1130.794 849.797 C 1109.678 853.443, 1107.892 853.917, 1104.156 856.877 L 1100.151 860.049 1092.325 858.471 C 1088.021 857.604, 1083.825 856.702, 1083 856.467 C 1082.016 856.188, 1079.964 858.408, 1077.034 862.922 L 1072.568 869.803 1055.237 870.525 L 1037.907 871.247 1025.049 878.124 C 1013.881 884.096, 1011.508 885, 1006.990 885 C 1004.129 885, 999.222 885.665, 996.086 886.478 C 992.949 887.291, 987.034 889.428, 982.941 891.228 L 975.500 894.500 945 894.500 L 914.500 894.500 914.197 900.340 L 913.895 906.180 921.197 905.577 C 925.214 905.245, 940.200 904.276, 954.500 903.423 L 980.500 901.873 1027.500 888.518 C 1053.350 881.173, 1093.175 869.534, 1116 862.653 C 1138.825 855.772, 1166.050 847.379, 1176.500 844.002 C 1186.950 840.626, 1199.250 836.543, 1203.833 834.930 C 1208.416 833.317, 1218.067 829.487, 1225.279 826.419 C 1232.491 823.350, 1245.616 817.445, 1254.446 813.296 C 1263.276 809.146, 1277.068 802.464, 1285.096 798.446 C 1293.124 794.429, 1309.324 786.666, 1321.096 781.197 C 1332.868 775.727, 1352.316 766.912, 1364.314 761.608 C 1376.312 756.304, 1393.637 748.782, 1402.814 744.893 C 1411.991 741.004, 1431.200 733.089, 1445.500 727.304 C 1459.800 721.519, 1478.475 713.856, 1487 710.275 C 1495.525 706.694, 1508.461 701.567, 1515.747 698.881 C 1523.033 696.196, 1543.283 689.090, 1560.747 683.091 C 1578.211 677.091, 1603.975 668.133, 1618 663.184 C 1632.025 658.234, 1659.025 648.563, 1678 641.693 C 1696.975 634.823, 1735.225 620.787, 1763 610.501 C 1790.775 600.216, 1821.600 588.870, 1831.500 585.288 C 1841.400 581.706, 1850.737 578.332, 1852.250 577.790 C 1854.392 577.022, 1855 576.163, 1855 573.902 C 1855 572.187, 1854.468 571, 1853.699 571 C 1852.984 571, 1848.386 571.877, 1843.481 572.949 C 1838.577 574.020, 1834.515 574.808, 1834.456 574.699 C 1834.396 574.589, 1833.315 572.784, 1832.053 570.688 C 1830.563 568.210, 1829.580 564.642, 1829.248 560.501 C 1828.744 554.222, 1828.836 553.931, 1835.368 541.037 C 1839.016 533.838, 1842 526.883, 1842 525.582 C 1842 523.829, 1841.288 523.045, 1839.250 522.553 C 1837.737 522.188, 1834.813 521.447, 1832.750 520.906 C 1829.482 520.049, 1829 519.542, 1829 516.961 L 1829 514 1846.250 514.065 L 1863.500 514.129 1879.500 518.865 L 1895.500 523.600 1895.797 529.785 C 1896.092 535.924, 1896.129 535.992, 1900.797 539.159 C 1903.384 540.913, 1906.518 543.127, 1907.763 544.078 C 1910.026 545.808, 1910.026 545.808, 1904.817 548.404 C 1901.387 550.113, 1897.970 551, 1894.813 551 C 1890.435 551, 1889.822 551.303, 1887.759 554.488 C 1885.595 557.829, 1885.248 557.976, 1879.500 557.991 C 1873.606 558.006, 1873.367 558.117, 1866.012 564.288 C 1861.893 567.743, 1858.097 571.783, 1857.576 573.265 C 1857.054 574.748, 1856.861 576.194, 1857.146 576.479 C 1857.431 576.764, 1866.852 572.903, 1878.082 567.899 C 1889.312 562.895, 1910.200 553.493, 1924.500 547.006 C 1938.800 540.519, 1960.850 530.266, 1973.500 524.221 C 1986.150 518.177, 2046 488.528, 2106.500 458.335 C 2167 428.143, 2229.958 396.999, 2246.408 389.127 C 2262.857 381.255, 2280.216 373.326, 2284.983 371.506 C 2289.750 369.687, 2302.617 364.152, 2313.575 359.206 C 2324.534 354.259, 2343.850 345.395, 2356.500 339.508 C 2369.150 333.620, 2395.025 321.248, 2414 312.014 C 2432.975 302.780, 2453.675 292.990, 2460 290.259 C 2466.325 287.528, 2475.100 284.139, 2479.500 282.729 C 2483.900 281.319, 2489.209 279.878, 2491.298 279.528 C 2493.387 279.178, 2499.237 277.188, 2504.298 275.106 C 2509.359 273.023, 2519.688 268.458, 2527.250 264.961 C 2540.638 258.769, 2541 258.519, 2541 255.468 C 2541 253.033, 2541.861 251.642, 2544.865 249.229 C 2546.990 247.521, 2551.267 242.383, 2554.369 237.812 C 2557.471 233.240, 2560.007 228.723, 2560.004 227.773 C 2560.002 226.823, 2558.987 225.397, 2557.750 224.604 C 2556.512 223.812, 2553.475 222.618, 2551 221.953 C 2548.311 221.229, 2540.230 220.775, 2530.920 220.823 L 2515.340 220.904 2511.932 213.860 C 2510.058 209.986, 2507.808 206.432, 2506.932 205.964 C 2505.948 205.437, 2504.340 205.630, 2502.725 206.468 C 2501.287 207.214, 2497.996 209.439, 2495.411 211.412 C 2491.612 214.313, 2489.831 215.005, 2486.106 215.024 C 2483.573 215.038, 2479.475 215.504, 2477 216.060 C 2474.525 216.616, 2465.904 219.143, 2457.843 221.675 L 2443.186 226.280 2440.642 233.171 L 2438.098 240.062 2441.529 251.237 C 2444.606 261.257, 2444.810 262.623, 2443.511 264.456 C 2442.714 265.580, 2441.002 267.758, 2439.707 269.295 C 2437.449 271.976, 2437.032 272.078, 2429.507 271.795 L 2421.661 271.500 2420.247 267.250 L 2418.833 263 2410.417 263 C 2403.243 263, 2402 263.245, 2402 264.659 C 2402 265.572, 2400.109 268.823, 2397.797 271.885 C 2395.486 274.946, 2388.894 282.862, 2383.149 289.475 C 2377.404 296.089, 2371.933 302.324, 2370.993 303.331 C 2369.337 305.104, 2368.740 305.095, 2351.892 303.040 L 2334.500 300.918 2330.778 305.209 C 2328.731 307.569, 2326.067 311.846, 2324.859 314.714 C 2322.751 319.716, 2322.475 319.954, 2318.081 320.559 C 2315.561 320.906, 2312.196 321.501, 2310.602 321.882 C 2308.083 322.484, 2307.129 323.875, 2303.294 332.537 L 2298.884 342.500 2292.692 345.262 C 2289.286 346.782, 2285.926 348.019, 2285.225 348.012 C 2284.524 348.006, 2280.856 346.442, 2277.074 344.537 C 2270.553 341.253, 2269.851 340.545, 2263.460 330.787 C 2259.755 325.129, 2253.635 316.336, 2249.861 311.247 L 2243 301.995 2242.971 289.247 L 2242.942 276.500 2231.330 266 C 2224.943 260.225, 2218.882 254.913, 2217.861 254.195 C 2216.234 253.051, 2214.856 253.576, 2206.752 258.424 L 2197.500 263.959 2193.847 272.730 L 2190.195 281.500 2180.623 284.851 L 2171.052 288.201 2164.610 284.599 C 2161.067 282.617, 2154.439 278.231, 2149.882 274.853 L 2141.597 268.709 2128.548 269.362 C 2121.372 269.721, 2112.492 270.657, 2108.814 271.442 C 2105.137 272.226, 2100.862 273.555, 2099.314 274.394 C 2097.767 275.233, 2096.950 275.922, 2097.500 275.924 C 2098.050 275.926, 2104.273 275.121, 2111.329 274.136 L 2124.158 272.345 2123.621 275.422 C 2123.326 277.115, 2122.588 282.325, 2121.982 287 C 2121.376 291.675, 2120.026 298.973, 2118.982 303.218 C 2117.938 307.463, 2116.379 312.301, 2115.516 313.968 C 2113.949 317, 2113.949 317, 2104.724 317.012 L 2095.500 317.023 2092 325.100 C 2090.075 329.543, 2088.202 333.365, 2087.838 333.593 C 2087.475 333.822, 2081.352 332.933, 2074.233 331.617 C 2067.115 330.302, 2060.325 328.709, 2059.145 328.078 C 2057.965 327.446, 2057.021 326.608, 2057.046 326.215 C 2057.071 325.822, 2057.896 321.675, 2058.879 317 L 2060.667 308.500 2055.334 300.848 C 2050.116 293.362, 2050 293.042, 2050 286.140 L 2050 279.084 2045.615 276.514 C 2041.545 274.129, 2041.110 273.460, 2039.571 267.222 C 2038.659 263.525, 2037.677 259.712, 2037.389 258.750 C 2036.929 257.212, 2037.631 257.001, 2043.183 257.008 L 2049.500 257.017 2052.835 263.297 C 2056.019 269.292, 2056.592 269.801, 2065.496 274.524 C 2074.585 279.346, 2074.872 279.426, 2076.830 277.654 C 2078.838 275.837, 2078.838 275.837, 2076.919 284.618 C 2075.863 289.447, 2075 293.722, 2075 294.118 C 2075 294.513, 2076.574 295.810, 2078.499 296.999 C 2081.901 299.102, 2082.135 299.116, 2086.999 297.500 C 2089.749 296.587, 2092 295.712, 2092 295.556 C 2092 295.400, 2088.805 288.656, 2084.899 280.570 C 2080.994 272.484, 2077.956 265.760, 2078.149 265.627 C 2078.342 265.494, 2080.525 263.862, 2083 262 C 2085.475 260.138, 2087.623 258.541, 2087.773 258.451 C 2087.923 258.361, 2086.233 254.510, 2084.018 249.894 C 2081.691 245.043, 2079.676 239.101, 2079.245 235.816 L 2078.500 230.133 2071.284 234.655 C 2064.452 238.936, 2063.880 239.115, 2060.546 238.015 C 2057.053 236.862, 2057.037 236.830, 2058.512 233.976 C 2059.331 232.394, 2060 230.855, 2060 230.557 C 2060 230.259, 2057.412 231.372, 2054.248 233.030 C 2051.085 234.688, 2046.788 236.322, 2044.698 236.662 L 2040.900 237.278 2042.606 233.699 C 2044.313 230.120, 2044.313 230.120, 2041.009 226.358 C 2039.192 224.288, 2036.461 219.873, 2034.941 216.547 C 2033.420 213.221, 2031.881 209.487, 2031.521 208.250 C 2031.035 206.583, 2031.279 206, 2032.461 206 C 2033.339 206, 2036.744 207.356, 2040.029 209.014 L 2046 212.029 2046 218.575 L 2046 225.121 2049.750 224.810 C 2053.390 224.509, 2053.509 224.375, 2053.807 220.250 C 2053.998 217.621, 2054.604 216, 2055.397 216 C 2056.101 216, 2058.719 218.250, 2061.214 221 C 2064.642 224.779, 2066.452 226.002, 2068.625 226.009 C 2070.206 226.013, 2073.863 226.301, 2076.750 226.648 L 2082 227.279 2082 221.261 L 2082 215.243 2074.257 214.091 C 2069.998 213.458, 2063.360 212.001, 2059.507 210.854 C 2055.653 209.707, 2049.031 207.025, 2044.790 204.893 L 2037.080 201.018 2031.678 189.653 C 2028.707 183.403, 2025.851 178.026, 2025.331 177.704 C 2024.811 177.383, 2022.128 176.821, 2019.369 176.455 L 2014.352 175.789 2012.645 180.259 C 2011.706 182.717, 2009.715 185.920, 2008.219 187.376 C 2006.724 188.832, 2004.628 190.636, 2003.563 191.385 C 2001.779 192.639, 2001.721 193.174, 2002.835 198.124 C 2003.500 201.081, 2004.312 204.513, 2004.639 205.750 C 2005.112 207.542, 2004.818 208, 2003.193 208 C 2002.071 208, 1999.033 206.381, 1996.441 204.403 L 1991.729 200.807 1989.387 203.653 C 1988.099 205.219, 1986.075 208.453, 1984.890 210.841 C 1983.704 213.228, 1982.512 217.150, 1982.241 219.556 C 1981.775 223.689, 1981.492 224.029, 1977.124 225.715 C 1974.204 226.842, 1970.197 227.442, 1966.250 227.344 C 1960.420 227.198, 1960 227.336, 1960 229.400 C 1960 230.616, 1961.012 232.962, 1962.250 234.613 C 1963.487 236.264, 1966.412 239.329, 1968.750 241.424 L 1973 245.233 1973.005 252.866 L 1973.010 260.500 1985.520 268.631 L 1998.030 276.761 2005.015 274.724 L 2012 272.686 2012 268.775 L 2012 264.864 2009.030 266.978 C 2007.397 268.142, 2005.797 269.520, 2005.475 270.041 C 2005.152 270.563, 2004.055 271.436, 2003.035 271.981 C 2001.493 272.807, 2000.831 272.379, 1999.091 269.429 C 1997.941 267.480, 1997 265.550, 1997 265.140 C 1997 264.730, 1999.138 263.641, 2001.750 262.720 C 2004.362 261.798, 2008.300 260.787, 2010.500 260.472 C 2014.434 259.910, 2014.588 260.008, 2019.881 266.450 L 2025.262 273 2031.131 273 C 2036.681 273, 2037 273.132, 2037 275.433 C 2037 276.894, 2036.301 278.063, 2035.250 278.360 C 2034.287 278.633, 2031.151 279.153, 2028.281 279.517 C 2023.350 280.143, 2022.893 280.453, 2020.020 285.122 C 2018.347 287.841, 2016.871 290.424, 2016.739 290.862 C 2016.608 291.299, 2020.874 298.402, 2026.220 306.644 C 2035.891 321.555, 2035.935 321.651, 2034.860 325.547 C 2034.265 327.700, 2032.466 331.369, 2030.862 333.701 C 2029.258 336.032, 2026.414 339.108, 2024.543 340.535 L 2021.141 343.130 2012.847 337.576 L 2004.552 332.023 2000.488 336.012 C 1996.427 339.997, 1996.419 340, 1988.357 340 L 1980.289 340 1979.703 333.721 C 1979.380 330.268, 1977.910 324.080, 1976.436 319.971 C 1974.961 315.862, 1972.901 310.813, 1971.857 308.750 C 1970.813 306.688, 1969.457 305, 1968.844 305 C 1968.105 305, 1967.926 306.447, 1968.315 309.279 C 1968.637 311.632, 1970.510 318.270, 1972.477 324.029 C 1975.826 333.839, 1975.978 334.816, 1974.887 339.500 C 1974.247 342.250, 1972.157 347.650, 1970.244 351.500 C 1968.330 355.350, 1961.690 367.050, 1955.489 377.500 C 1949.287 387.950, 1942.464 399.634, 1940.328 403.465 C 1936.443 410.429, 1936.443 410.429, 1930.472 411.642 C 1927.187 412.309, 1917.750 413.378, 1909.500 414.019 C 1901.250 414.659, 1894.405 415.275, 1894.288 415.387 C 1894.171 415.499, 1891.895 425.093, 1889.230 436.707 L 1884.384 457.823 1875.273 467.661 C 1870.262 473.073, 1863.925 479.685, 1861.190 482.355 C 1856.656 486.783, 1855.128 487.546, 1843.859 491.012 L 1831.500 494.813 1816 486.720 C 1807.475 482.268, 1794.672 475.560, 1787.549 471.813 C 1775.738 465.600, 1774.071 465, 1768.620 465 C 1763.065 465, 1762.415 464.752, 1759.436 461.500 C 1757.606 459.502, 1755.272 458, 1753.998 458 C 1751.829 458, 1751.785 458.208, 1752.450 465.307 L 1753.134 472.614 1740.817 472.261 C 1734.043 472.067, 1727.531 471.706, 1726.348 471.460 C 1725.164 471.213, 1722.577 468.758, 1720.599 466.005 C 1717.122 461.165, 1716.842 461, 1712.088 461 L 1707.172 461 1703.537 467.500 C 1701.538 471.075, 1699.553 474, 1699.125 474 C 1698.698 474, 1697.357 472.945, 1696.146 471.655 C 1694.667 470.081, 1694.169 468.685, 1694.630 467.405 C 1695.008 466.357, 1697.306 463.138, 1699.736 460.250 L 1704.155 455 1695.827 454.951 L 1687.500 454.903 1693.953 451.585 C 1699.872 448.541, 1700.540 447.863, 1702.036 443.383 L 1703.666 438.500 1710.895 438.205 C 1716.852 437.962, 1719.065 438.341, 1723.475 440.360 L 1728.826 442.810 1732.644 438.070 C 1736.371 433.445, 1736.552 433.353, 1740.159 434.268 L 1743.856 435.207 1762.389 416.353 C 1780.923 397.500, 1780.923 397.500, 1780.961 392.882 C 1780.998 388.490, 1781.469 387.731, 1790.573 377.382 C 1799.527 367.203, 1800.440 366.456, 1804.706 365.814 C 1807.273 365.428, 1815.532 361.960, 1823.603 357.880 L 1837.939 350.632 1847.219 351.856 C 1852.324 352.529, 1858.188 353.344, 1860.250 353.668 L 1864 354.256 1864 344.744 L 1864 335.233 1868.003 331.616 C 1870.994 328.914, 1872.889 328, 1875.503 328 C 1878.913 328, 1879 328.099, 1879 331.981 C 1879 335.811, 1879.359 336.248, 1888.448 343.485 C 1893.645 347.622, 1899.514 351.961, 1901.491 353.127 C 1903.468 354.294, 1905.320 355.013, 1905.608 354.726 C 1905.895 354.438, 1903.231 346.620, 1899.687 337.352 C 1896.143 328.083, 1892.514 317.956, 1891.622 314.846 C 1890.730 311.736, 1890 307.322, 1890 305.037 C 1890 301.342, 1890.793 299.940, 1897.149 292.391 C 1901.082 287.721, 1904.825 284.102, 1905.467 284.349 C 1906.109 284.595, 1912.230 286.467, 1919.068 288.508 C 1931.462 292.208, 1931.540 292.217, 1944.500 291.560 C 1951.650 291.197, 1957.851 290.549, 1958.281 290.119 C 1958.711 289.689, 1958.936 283.536, 1958.781 276.445 L 1958.500 263.553 1947.500 260.341 C 1941.450 258.575, 1933.913 256.817, 1930.750 256.436 C 1926.810 255.960, 1925 255.300, 1925 254.338 C 1925 253.565, 1926.080 250.802, 1927.401 248.196 C 1928.721 245.591, 1933.002 238.743, 1936.914 232.979 L 1944.026 222.500 1952.263 220.433 C 1960.331 218.407, 1960.623 218.402, 1966.500 220.175 C 1969.800 221.170, 1972.612 221.988, 1972.750 221.992 C 1972.888 221.997, 1973 220.678, 1973 219.063 C 1973 217.223, 1971.319 213.672, 1968.498 209.551 L 1963.996 202.975 1967.248 199.991 C 1969.037 198.349, 1971.400 196.762, 1972.500 196.464 C 1973.600 196.166, 1977.088 196.815, 1980.250 197.907 L 1986 199.892 1986.023 193.196 L 1986.045 186.500 1994.023 181.244 C 2002 175.989, 2002 175.989, 2002 171.549 L 2002 167.110 2006.641 166.805 L 2011.282 166.500 2019.070 154 C 2023.353 147.125, 2029.039 138.810, 2031.704 135.523 C 2034.370 132.235, 2038.069 128.523, 2039.923 127.273 C 2041.778 126.023, 2043.882 125, 2044.599 125 C 2045.316 125, 2047.509 127.874, 2049.474 131.387 C 2052.780 137.299, 2053.476 137.934, 2058.856 139.946 C 2062.052 141.141, 2066.092 142.986, 2067.834 144.045 C 2069.597 145.117, 2071 146.810, 2071 147.865 C 2071 148.907, 2067.850 153.018, 2064 157 C 2060.150 160.982, 2057 164.636, 2057 165.120 C 2057 165.604, 2057.597 166, 2058.328 166 C 2059.058 166, 2063.220 163.785, 2067.578 161.079 C 2071.935 158.372, 2079.550 153.668, 2084.500 150.625 C 2089.450 147.581, 2095.467 144.657, 2097.871 144.125 C 2100.275 143.593, 2102.601 142.785, 2103.040 142.329 C 2103.478 141.873, 2106.861 135.875, 2110.556 129 C 2114.252 122.125, 2119.076 113.800, 2121.278 110.500 C 2123.479 107.200, 2127.805 102.083, 2130.890 99.128 L 2136.500 93.756 2123.221 94.263 C 2110.194 94.760, 2109.764 94.851, 2100.507 99.049 L 2091.071 103.328 2084.989 99.574 L 2078.908 95.820 2065.954 101.019 C 2053.534 106.003, 2053 106.336, 2053 109.108 C 2053 111.930, 2052.872 112, 2047.750 112.002 L 2042.500 112.004 2036.179 120.002 L 2029.858 128 2022.455 128 C 2015.333 128, 2014.996 127.892, 2013.583 125.160 L 2012.114 122.320 2003.516 123.943 L 1994.918 125.566 1991.589 133.224 C 1989.758 137.436, 1986.873 142.768, 1985.178 145.072 C 1983.483 147.377, 1979.915 150.902, 1977.249 152.905 C 1974.583 154.908, 1970.505 157.173, 1968.186 157.938 C 1965.868 158.704, 1963.601 159.818, 1963.149 160.415 C 1962.697 161.012, 1961.277 164.200, 1959.993 167.500 C 1958.709 170.800, 1956.124 175.852, 1954.248 178.727 C 1952.371 181.601, 1948.182 185.949, 1944.938 188.387 C 1941.695 190.825, 1933.665 195.561, 1927.096 198.910 L 1915.151 205 1902.596 205 L 1890.040 205 1887.270 210.006 C 1885.747 212.760, 1882.250 219.086, 1879.500 224.065 C 1876.750 229.043, 1871.097 237.703, 1866.938 243.308 L 1859.376 253.500 1844.938 259.916 C 1836.997 263.445, 1824.650 269.226, 1817.500 272.763 C 1810.350 276.301, 1801.800 281.131, 1798.500 283.497 C 1795.200 285.863, 1788 291.941, 1782.500 297.004 C 1777 302.066, 1769.125 308.734, 1765 311.821 C 1760.875 314.908, 1753.650 321.141, 1748.944 325.672 L 1740.389 333.911 1708.444 348.113 L 1676.500 362.316 1636 365.232 L 1595.500 368.148 1565.922 376.574 L 1536.345 385 1510.280 385 C 1484.921 385, 1483.856 384.919, 1471 382 C 1463.732 380.350, 1456.777 379, 1455.545 379 C 1454.313 379, 1439.849 381.854, 1423.403 385.342 L 1393.500 391.684 1357 388.925 C 1320.500 386.165, 1320.500 386.165, 1261.878 387.117 L 1203.256 388.069 1187.378 381.128 L 1171.500 374.187 1167 376.721 C 1164.525 378.114, 1161.841 379.872, 1161.036 380.627 C 1159.780 381.804, 1160.279 382.029, 1164.536 382.201 C 1167.266 382.311, 1171.232 382.298, 1173.350 382.171 L 1177.199 381.941 1175.213 385.221 L 1173.226 388.500 1178.049 396.848 C 1180.702 401.439, 1183.328 406.502, 1183.884 408.098 C 1184.642 410.273, 1184.589 411, 1183.670 411 C 1182.995 411, 1179.081 409.394, 1174.972 407.432 C 1170.862 405.469, 1161.763 400.654, 1154.750 396.732 C 1144.177 390.819, 1142 389.209, 1142 387.301 C 1142 386.001, 1142.606 385, 1143.393 385 C 1144.159 385, 1148.218 385.710, 1152.412 386.577 C 1156.606 387.444, 1160.463 388.007, 1160.983 387.827 C 1161.503 387.647, 1161.001 386.038, 1159.866 384.250 C 1157.910 381.168, 1157.485 380.998, 1151.652 380.962 C 1145.597 380.924, 1145.373 380.821, 1137.500 374.465 C 1133.100 370.913, 1129.190 368.118, 1128.811 368.253 C 1128.432 368.389, 1124.080 372.213, 1119.140 376.750 L 1110.157 385 1097.078 385 C 1084 385, 1084 385, 1084 387.363 C 1084 388.898, 1085.666 391.270, 1088.750 394.130 C 1091.362 396.552, 1094.805 399.470, 1096.400 400.614 L 1099.300 402.694 1097.650 420.547 C 1096.742 430.366, 1095.657 438.743, 1095.239 439.161 C 1094.820 439.580, 1087.855 442.868, 1079.761 446.468 C 1071.666 450.068, 1062.627 453.643, 1059.674 454.413 C 1056.721 455.182, 1050.974 457.159, 1046.902 458.806 C 1042.831 460.453, 1033.650 464.587, 1026.500 467.993 L 1013.500 474.185 1003 471.972 C 997.225 470.755, 986.020 467.985, 978.101 465.817 C 970.181 463.649, 957.806 459.671, 950.601 456.976 C 943.395 454.282, 932.100 450.531, 925.500 448.642 C 918.900 446.752, 907.613 444.023, 900.417 442.576 L 887.334 439.946 878.523 443.353 L 869.712 446.759 855.254 439.883 C 847.303 436.101, 840.472 433.208, 840.075 433.454 C 839.678 433.699, 838.752 435.722, 838.017 437.950 C 836.727 441.856, 836.525 442, 832.340 442 C 828.432 442, 828 441.762, 828 439.614 C 828 437.554, 828.613 437.135, 832.472 436.556 C 835.577 436.091, 837.565 435.098, 838.972 433.308 C 840.088 431.890, 841 430.316, 841 429.810 C 841 429.304, 835.938 422.645, 829.750 415.011 L 818.500 401.131 813.321 401.066 L 808.142 401 807.084 406.250 C 806.502 409.137, 805.595 416.225, 805.068 422 C 804.542 427.775, 803.859 439.475, 803.550 448 L 802.990 463.500 806.096 454.697 L 809.202 445.895 813.267 446.197 C 816.922 446.469, 817.451 446.854, 818.506 450 C 819.151 451.925, 819.950 453.500, 820.281 453.500 C 820.612 453.500, 823.144 451.776, 825.907 449.669 C 830.681 446.028, 831.043 445.916, 833.188 447.419 C 834.429 448.289, 836.020 449, 836.723 449 C 837.488 449, 838 447.742, 838 445.864 C 838 442.728, 838 442.728, 842.588 443.357 C 845.112 443.703, 850.474 445.452, 854.505 447.243 C 860.696 449.995, 861.923 450.946, 862.416 453.375 C 862.737 454.956, 863 457.864, 863 459.837 C 863 462.670, 862.167 464.273, 859.039 467.462 L 855.079 471.500 858.521 479 C 860.414 483.125, 861.967 487.175, 861.972 488 C 861.977 488.825, 860.625 491.866, 858.966 494.757 C 855.978 499.968, 855.930 500, 853.495 498.405 C 851.388 497.024, 851.201 496.490, 852.180 494.648 C 852.808 493.467, 854.451 490.786, 855.833 488.691 L 858.344 484.881 848.441 474.941 C 842.994 469.473, 838.203 465, 837.794 465 C 837.386 465, 836.365 466.328, 835.526 467.950 C 834.687 469.573, 834 472.236, 834 473.869 C 834 475.501, 833.727 477.548, 833.393 478.418 C 833.059 479.288, 832.042 480, 831.132 480 C 830.223 480, 826.369 477.914, 822.569 475.365 L 815.660 470.730 808.240 474.401 L 800.821 478.072 782.345 475.875 L 763.870 473.678 760.340 469.370 L 756.811 465.063 758.541 460.531 C 760.266 456.014, 760.287 456, 765.136 456 L 770 456 770.027 459.750 L 770.054 463.500 773.415 459.887 C 775.678 457.454, 777.138 454.582, 777.888 451.088 C 778.499 448.235, 779 445.124, 779 444.173 C 779 443.223, 776.267 440.039, 772.926 437.098 L 766.851 431.751 751.101 430.567 L 735.350 429.383 724.009 421.595 L 712.668 413.807 707.921 419.153 C 703.366 424.283, 703.089 424.949, 701.087 435.593 C 699.939 441.694, 699 447.480, 699 448.449 C 699 449.418, 700.097 451.515, 701.438 453.109 C 702.779 454.702, 706.095 459.942, 708.807 464.753 C 711.518 469.564, 716.946 479.907, 720.868 487.737 L 728 501.973 728 512.202 L 728 522.431 732.615 527.117 L 737.231 531.803 734.630 533.507 C 732.051 535.197, 731.985 535.172, 726.872 530.575 C 724.036 528.025, 718.855 524.339, 715.358 522.383 L 709 518.828 709 511.529 C 709 507.473, 708.266 501.957, 707.348 499.115 L 705.696 494 695.848 494 L 686 494 685.855 498.750 C 685.775 501.363, 685.808 505.075, 685.929 507 C 686.050 508.925, 686.949 513.684, 687.928 517.575 L 689.706 524.650 680.103 523.341 C 674.821 522.621, 665.691 521.301, 659.814 520.407 L 649.128 518.781 647.138 512.141 C 646.044 508.488, 644.388 502.846, 643.460 499.603 C 641.865 494.029, 641.870 493.385, 643.545 487.853 C 645.294 482.074, 645.364 482, 649.058 482 C 652.349 482, 653.548 481.224, 659.021 475.556 C 665.081 469.280, 665.304 469.153, 667.621 470.671 C 669.762 472.074, 670 472.951, 670 479.440 C 670 486.485, 669.895 486.786, 665.396 492.575 C 662.863 495.834, 659.938 500.170, 658.896 502.210 C 657.853 504.251, 657 506.613, 657 507.460 C 657 508.403, 657.872 508.983, 659.250 508.956 C 660.487 508.932, 664.200 508.352, 667.500 507.667 L 673.500 506.421 674.219 499.253 C 674.614 495.310, 675.604 490.490, 676.418 488.542 C 677.882 485.039, 677.965 485, 683.949 485 C 689.796 485, 690 484.913, 690 482.404 C 690 480.977, 689.006 478.389, 687.792 476.654 C 686.577 474.919, 682.650 470.238, 679.063 466.250 C 675.477 462.263, 672.199 459, 671.779 459 C 671.358 459, 666.398 461.196, 660.757 463.879 C 655.116 466.563, 648.783 469.307, 646.685 469.978 C 644.586 470.649, 641.422 470.927, 639.653 470.595 C 637.884 470.263, 632.886 467.968, 628.547 465.496 C 624.209 463.023, 620.356 461, 619.986 461 C 619.616 461, 616.110 463.250, 612.194 466 C 605.299 470.842, 604.854 471, 598.097 471 L 591.119 471 586.903 476 L 582.687 481 575.636 481 C 568.908 481, 568.417 481.163, 564.951 484.547 L 561.319 488.095 553.730 484.636 L 546.140 481.178 540.395 490.839 C 537.235 496.152, 532.832 502.975, 530.611 506 C 528.390 509.025, 524.795 513.431, 522.621 515.792 L 518.669 520.083 520.352 533.292 C 521.277 540.556, 522.473 553.925, 523.008 563 C 523.544 572.075, 523.986 581.900, 523.991 584.833 C 523.997 588.655, 523.646 590.050, 522.750 589.756 C 522.063 589.530, 519.605 586.680, 517.289 583.423 C 514.973 580.165, 508.978 570.717, 503.966 562.426 L 494.854 547.352 474.177 538.662 C 462.805 533.882, 453.010 529.978, 452.411 529.986 C 451.811 529.994, 450.808 531.125, 450.182 532.500 C 449.123 534.824, 448.545 535, 441.954 535 C 435.687 535, 434.921 535.203, 435.344 536.750 C 435.608 537.712, 436.376 541.602, 437.052 545.394 L 438.281 552.289 432.031 557.896 L 425.782 563.503 430.891 567.811 L 436 572.119 436.015 578.810 C 436.024 582.489, 436.411 586.100, 436.876 586.833 C 437.455 587.747, 438.090 586.699, 438.895 583.501 L 440.070 578.836 444.285 579.538 C 446.603 579.924, 450.200 580.914, 452.277 581.739 C 454.354 582.564, 456.649 584.089, 457.377 585.128 C 458.618 586.899, 458.967 586.923, 462.976 585.509 C 465.327 584.679, 467.364 584, 467.503 584 C 467.641 584, 466.363 587.643, 464.663 592.095 C 461.663 599.955, 461.622 600.277, 463.271 603.150 C 464.940 606.058, 464.907 606.235, 461.330 613.305 C 459.328 617.262, 456.653 622.975, 455.387 626 L 453.085 631.500 453.042 621.956 C 453.003 613.007, 452.797 612.072, 449.750 606.974 C 446.882 602.175, 445.554 601.064, 438.456 597.518 C 434.033 595.308, 426.045 590.462, 420.707 586.750 C 415.369 583.038, 410.635 580, 410.188 580 C 409.740 580, 408.106 581.323, 406.557 582.941 L 403.739 585.882 406.619 593.997 L 409.500 602.111 402.055 608.883 L 394.610 615.654 396.423 622.353 C 398.213 628.967, 398.313 629.094, 404.196 632.276 L 410.156 635.500 409.505 645.146 C 409.096 651.213, 409.225 655.021, 409.854 655.410 C 410.404 655.750, 412.248 657.788, 413.953 659.940 L 417.052 663.853 413.432 662.854 C 411.441 662.304, 409.564 662.102, 409.261 662.406 C 408.958 662.709, 407.964 667.579, 407.052 673.229 L 405.394 683.500 399.984 673 C 397.008 667.225, 393.735 660.475, 392.711 658 C 391.686 655.525, 389.537 650.688, 387.933 647.250 L 385.019 641 380.009 641 C 375 641, 375 641, 375 644.500 C 375 647.981, 374.976 648, 370.500 648 C 366.059 648, 366 647.956, 366 644.639 L 366 641.277 357.250 640.742 C 351.147 640.369, 346.004 639.311, 340.247 637.246 L 331.994 634.285 326.340 641.196 C 323.230 644.997, 319.756 648.758, 318.620 649.553 C 317.484 650.349, 316.205 651, 315.777 651 C 315.350 651, 315 648.300, 315 645 C 315 640.686, 314.628 639, 313.675 639 C 312.946 639, 309.234 640.078, 305.425 641.395 C 301.616 642.712, 297.712 644.110, 296.750 644.502 C 295.457 645.028, 295 646.361, 295 649.607 C 295 653.961, 294.969 654, 291.500 654 C 289.575 654, 288 654.283, 288 654.628 C 288 654.974, 290.925 658.357, 294.500 662.147 L 301 669.037 301 678.019 L 301 687 304 687 C 305.650 687, 306.987 687.337, 306.971 687.750 C 306.955 688.163, 305.566 690.013, 303.884 691.863 L 300.827 695.226 297.163 693.566 C 295.148 692.653, 292.505 691.140, 291.288 690.203 C 289.122 688.535, 289.115 688.451, 290.913 686.091 L 292.749 683.682 296.374 685.922 C 298.368 687.155, 300 687.839, 300 687.443 C 300 687.047, 297.559 683.748, 294.576 680.111 C 291.592 676.475, 286.695 671.475, 283.692 669 C 278.888 665.040, 278.157 663.946, 277.599 659.878 C 277.250 657.335, 276.143 652.835, 275.139 649.878 L 273.313 644.500 264.563 641.113 L 255.813 637.726 252.746 640.793 L 249.679 643.860 251.695 649.180 L 253.710 654.500 263.021 657.088 C 268.142 658.512, 271.920 659.905, 271.416 660.184 C 270.912 660.463, 268.344 661.275, 265.710 661.987 C 263.075 662.700, 260.527 664.015, 260.048 664.910 C 259.569 665.805, 258.856 668.252, 258.462 670.349 L 257.747 674.160 252.534 664.330 C 247.492 654.822, 247.099 654.375, 240.532 650.665 L 233.742 646.829 228.621 651.656 C 225.805 654.312, 220.322 659.542, 216.439 663.279 C 209.414 670.040, 209.368 670.064, 207.534 668.037 C 206.520 666.917, 205.321 666, 204.869 666 C 204.417 666, 203.174 667.687, 202.105 669.750 C 200.762 672.344, 199.999 673.038, 199.631 672 C 199.338 671.175, 198.597 668.542, 197.984 666.149 C 197.370 663.756, 197.088 661.578, 197.357 661.310 C 197.625 661.041, 201.367 661.562, 205.673 662.466 L 213.500 664.111 220.230 656.805 C 223.931 652.787, 227.657 648.054, 228.509 646.287 C 229.361 644.520, 232.811 639.908, 236.175 636.037 C 240.132 631.485, 243.036 629, 244.398 629 C 245.556 629, 251.003 629.855, 256.502 630.901 C 262.001 631.946, 269.007 633.113, 272.070 633.494 L 277.640 634.185 278.891 628.343 C 279.579 625.129, 280.382 621.661, 280.675 620.636 C 281.127 619.051, 281.981 619.537, 286.385 623.886 C 291.283 628.723, 291.845 629, 296.781 629 L 302 629 302 624.578 C 302 620.613, 302.440 619.779, 306.250 616.515 L 310.500 612.873 311.161 617.391 C 311.524 619.877, 312.851 623.742, 314.110 625.982 L 316.399 630.054 323.473 623.027 L 330.547 616 337.349 616 C 343.844 616, 344.409 616.197, 349.826 620.358 C 352.947 622.755, 357.395 625.680, 359.710 626.858 C 362.026 628.036, 365.288 629, 366.960 629 C 368.632 629, 369.989 628.663, 369.975 628.250 C 369.961 627.837, 367.019 625.291, 363.436 622.591 C 359.853 619.891, 356.688 617.304, 356.403 616.843 C 356.118 616.381, 356.585 615.003, 357.442 613.779 C 358.299 612.556, 359 611.242, 359 610.860 C 359 610.478, 355.245 606.091, 350.656 601.111 L 342.312 592.057 341.634 574.707 C 340.983 558.024, 341.049 557.114, 343.333 551.039 L 345.708 544.720 351.104 555.356 C 354.072 561.205, 356.741 565.993, 357.036 565.995 C 357.331 565.998, 358.665 562.850, 360 559 C 361.335 555.150, 362.698 552, 363.030 552 C 363.361 552, 364.572 553.688, 365.721 555.750 C 367.686 559.277, 367.718 559.728, 366.266 563.330 C 364.800 566.967, 364.837 567.371, 367.004 571.330 C 368.259 573.624, 370.430 576.738, 371.830 578.250 C 373.229 579.763, 375.415 581, 376.687 581 C 378.948 581, 379 580.777, 379 571.157 L 379 561.315 375.500 559.430 C 373.575 558.393, 372 557.379, 372 557.177 C 372 556.974, 372.717 554.343, 373.593 551.330 C 374.468 548.317, 374.923 545.590, 374.603 545.270 C 374.283 544.950, 372.196 545.405, 369.965 546.282 L 365.908 547.875 366.204 541.712 L 366.500 535.549 371 533.894 L 375.500 532.238 375.789 524.189 C 376.079 516.140, 376.079 516.140, 373.390 515.820 C 371.912 515.644, 370.222 514.734, 369.636 513.798 C 369.050 512.862, 368.844 511.823, 369.177 511.489 C 369.511 511.156, 371.462 511.584, 373.514 512.441 C 375.566 513.299, 377.639 514, 378.122 514 C 378.605 514, 379 512.915, 379 511.590 C 379 510.264, 380.750 507.002, 382.889 504.340 C 385.028 501.678, 389.482 496.860, 392.786 493.633 L 398.794 487.766 395.897 479.196 C 394.304 474.482, 393 470.484, 393 470.312 C 393 470.141, 394.585 470, 396.523 470 C 400.046 470, 400.046 470, 398.408 472.500 C 396.786 474.975, 396.800 475, 399.766 475 C 402.002 475, 403.425 474.132, 405.372 471.578 C 406.808 469.697, 411.249 466.166, 415.241 463.733 C 420.411 460.583, 422.460 458.761, 422.362 457.405 C 422.287 456.357, 421.917 454.150, 421.541 452.500 C 420.941 449.867, 421.241 449.274, 423.998 447.653 C 425.725 446.636, 427.263 445.961, 427.415 446.153 C 427.567 446.344, 428.886 448.292, 430.346 450.482 L 433 454.464 433 450.771 C 433 447.344, 433.271 447.006, 436.750 446.094 C 438.813 445.553, 441.774 444.803, 443.331 444.427 C 444.888 444.050, 446.342 443.238, 446.563 442.621 C 446.784 442.005, 446.365 437.526, 445.633 432.668 L 444.301 423.836 446.901 422.769 C 448.330 422.182, 452.287 421.493, 455.694 421.238 L 461.888 420.774 462.194 426.137 L 462.500 431.500 468.842 419.704 C 474.070 409.979, 475.431 408.113, 476.595 409.079 C 477.783 410.065, 477.420 411.335, 474.288 417.133 L 470.571 424.015 472.685 426.129 C 473.847 427.292, 475.259 427.958, 475.822 427.610 C 476.385 427.262, 477.136 425.656, 477.491 424.041 C 478.077 421.372, 478.556 421.076, 482.743 420.802 L 487.351 420.500 489.486 413.491 C 490.660 409.636, 493.105 403.261, 494.920 399.324 L 498.220 392.166 507.110 388.960 C 511.999 387.197, 516 385.634, 516 385.487 C 516 385.340, 516.900 380.846, 518 375.500 C 519.100 370.154, 520 365.356, 520 364.838 C 520 364.320, 518.650 363.425, 517 362.850 C 514.358 361.929, 514 361.339, 514 357.902 C 514 355.756, 514.423 354, 514.941 354 C 515.459 354, 516.160 354.450, 516.500 355 C 516.840 355.550, 517.728 356, 518.473 356 C 519.218 356, 522.186 351.625, 525.069 346.277 L 530.310 336.554 531.637 339.527 C 532.366 341.162, 534.125 345.200, 535.546 348.500 L 538.128 354.500 540.545 350.512 L 542.961 346.524 537.981 341.480 C 533.560 337.004, 533 335.954, 533 332.135 C 533 329.769, 533.337 328.006, 533.750 328.218 C 534.163 328.429, 536.525 329.552, 539 330.713 C 541.493 331.882, 546.152 332.974, 549.448 333.162 L 555.397 333.500 557.328 325.679 L 559.259 317.859 562.517 321.017 L 565.776 324.175 574.638 317.766 L 583.500 311.357 583.792 303.678 C 584.084 296.014, 584.089 296, 586.870 296 C 589.399 296, 589.765 296.470, 590.828 301.076 C 591.473 303.868, 592 306.532, 592 306.997 C 592 307.461, 590.650 308.138, 589 308.500 C 587.350 308.862, 586 309.582, 586 310.099 C 586 310.617, 587.174 312.943, 588.609 315.270 C 590.043 317.596, 591.888 320.032, 592.708 320.683 C 593.786 321.539, 594.838 321.576, 596.503 320.817 C 597.771 320.239, 602.283 315.778, 606.530 310.902 C 610.777 306.027, 614.566 302.232, 614.950 302.469 C 615.333 302.706, 616.260 304.758, 617.010 307.029 C 618.260 310.819, 618.173 311.734, 615.944 318.163 C 614.608 322.015, 613.224 325.638, 612.868 326.213 C 612.441 326.905, 610.139 326.555, 606.061 325.178 C 601.096 323.501, 599.800 323.359, 599.383 324.444 C 599.099 325.184, 599.009 327.524, 599.183 329.645 L 599.500 333.500 608.613 333.786 L 617.727 334.071 618.352 330.286 C 618.696 328.204, 618.983 325.089, 618.989 323.365 C 618.998 320.799, 620.194 319.112, 625.576 314.078 C 629.192 310.695, 634.408 306.143, 637.165 303.963 C 639.923 301.784, 642.808 300, 643.576 300 C 644.343 300, 646.157 298.209, 647.606 296.019 C 649.369 293.355, 650.078 291.188, 649.749 289.468 C 649.287 287.049, 649.441 286.938, 652.379 287.576 C 654.096 287.949, 656.513 288.636, 657.750 289.103 C 659.887 289.908, 660 290.479, 660 300.475 C 660 307.094, 660.386 311, 661.040 311 C 661.612 311, 663.773 310.136, 665.843 309.080 C 667.912 308.024, 671.034 305.699, 672.780 303.913 C 674.526 302.128, 676.454 299.154, 677.064 297.306 C 678.065 294.272, 677.873 293.477, 675.087 289.135 C 673.389 286.489, 672 283.840, 672 283.246 C 672 282.653, 673.795 280.746, 675.989 279.008 L 679.979 275.849 682.828 277.878 C 684.395 278.994, 686.255 280.603, 686.961 281.453 C 687.667 282.304, 688.640 283, 689.122 283 C 689.605 283, 690 281.083, 690 278.739 C 690 274.561, 690.132 274.396, 696.711 270.311 L 703.423 266.144 706.620 271.784 L 709.817 277.425 712.007 273.712 C 713.212 271.671, 714.495 270, 714.858 270 C 715.221 270, 716.567 272.926, 717.850 276.503 C 719.133 280.079, 720.585 282.757, 721.076 282.453 C 721.568 282.149, 724.868 276.212, 728.409 269.261 L 734.848 256.621 732.989 251.728 C 731.410 247.573, 731.360 246.924, 732.658 247.422 C 733.498 247.745, 735.257 248.277, 736.567 248.606 C 738.364 249.057, 739.095 250.099, 739.548 252.852 C 739.879 254.858, 740.469 258.300, 740.861 260.500 L 741.573 264.500 746.036 258.038 C 748.491 254.485, 750.749 251.226, 751.053 250.798 C 751.357 250.370, 756.254 250.905, 761.934 251.988 C 767.615 253.070, 772.654 253.714, 773.131 253.419 C 773.609 253.124, 774 249.523, 774 245.418 L 774 237.954 776.551 239.626 C 778.024 240.590, 779.444 240.917, 779.910 240.399 C 780.354 239.904, 781.947 236.068, 783.448 231.873 L 786.178 224.245 793.339 226.106 C 797.278 227.129, 800.786 227.973, 801.136 227.983 C 801.487 227.992, 802.061 225.862, 802.413 223.250 C 802.765 220.637, 803.314 216.765, 803.632 214.645 L 804.211 210.790 810.533 211.467 L 816.854 212.144 824.049 202.572 L 831.244 193 841.189 193 C 851.035 193, 851.128 192.978, 850.463 190.750 C 850.094 189.512, 849.189 187.542, 848.453 186.372 C 847.709 185.191, 845.576 183.956, 843.658 183.596 C 841.758 183.239, 839.032 182.027, 837.601 180.901 C 836.171 179.776, 835 177.915, 835 176.765 C 835 175.616, 836.143 172.726, 837.539 170.343 L 840.078 166.011 843.548 169.481 C 845.456 171.389, 850.276 175.132, 854.259 177.799 C 858.241 180.465, 862.016 182.949, 862.647 183.318 C 863.341 183.725, 865.611 181.329, 868.399 177.245 C 870.932 173.535, 873.004 169.758, 873.002 168.852 C 873 167.348, 873.659 167.373, 880.579 169.146 L 888.158 171.087 897.412 166.099 L 906.666 161.110 908.738 163.182 L 910.810 165.255 919.155 160.836 C 927.373 156.485, 927.505 156.355, 927.802 152.325 C 928.084 148.494, 928.388 148.123, 932.546 146.535 C 935.480 145.415, 938.095 145.075, 940.245 145.535 C 942.035 145.918, 944.737 146.951, 946.250 147.831 C 947.922 148.804, 949 150.287, 949 151.615 C 949 153.528, 949.963 154.009, 956.750 155.484 C 961.012 156.410, 965.442 157.386, 966.594 157.653 C 968.093 158.001, 970.223 156.751, 974.094 153.255 C 977.067 150.568, 980.613 147.612, 981.973 146.685 C 983.332 145.758, 985.862 145, 987.594 145 L 990.743 145 992.640 135.250 L 994.538 125.500 1002.246 122.500 L 1009.955 119.500 1012.063 112.563 L 1014.171 105.627 1015.835 109.293 L 1017.500 112.959 1026.935 104.979 L 1036.370 97 1046.185 97 L 1056 97 1056 92.158 C 1056 87.367, 1056.042 87.304, 1060.043 86.105 L 1064.086 84.894 1060.027 79.796 C 1057.795 76.993, 1056.200 74.467, 1056.484 74.183 C 1056.767 73.899, 1059.362 75.322, 1062.250 77.344 C 1065.137 79.366, 1069.485 82.745, 1071.910 84.852 L 1076.320 88.684 1071.570 91.952 C 1068.957 93.749, 1067.198 95.548, 1067.660 95.950 C 1068.122 96.351, 1070.075 97.275, 1072 98.002 C 1073.925 98.729, 1084.380 103.099, 1095.234 107.713 L 1114.968 116.101 1123.734 113.118 C 1128.889 111.363, 1135.898 109.847, 1140.750 109.438 C 1147.767 108.846, 1149 108.473, 1149 106.943 C 1149 105.954, 1147.802 104.203, 1146.338 103.051 C 1144.873 101.899, 1142.623 100.693, 1141.338 100.370 C 1140.052 100.047, 1139 99.452, 1139 99.048 C 1139 98.644, 1139.870 95.784, 1140.933 92.693 L 1142.867 87.074 1135.793 80.069 L 1128.718 73.064 1125.859 75.100 L 1123 77.136 1123 69.661 L 1123 62.185 1130.431 69.593 C 1137.828 76.965, 1137.888 77, 1143.181 76.963 L 1148.500 76.925 1161.477 59.463 L 1174.454 42 1179.477 41.994 L 1184.500 41.988 1194.887 30.494 C 1200.601 24.172, 1205.491 19, 1205.755 19 C 1206.019 19, 1209.755 22.173, 1214.058 26.052 L 1221.880 33.104 1224.095 29.257 L 1226.309 25.409 1236.905 27.146 L 1247.500 28.884 1250.282 25.692 C 1251.812 23.936, 1254.178 20.370, 1255.540 17.767 C 1256.902 15.164, 1258.688 10.456, 1259.508 7.307 C 1260.329 4.157, 1261 1.224, 1261 0.790 C 1261 0.355, 1026.975 0, 740.943 0 L 220.887 0 222.571 2.851 M 2259.163 31.012 C 2256.665 32.146, 2255.004 33.514, 2255.246 34.240 C 2255.477 34.933, 2256.356 35.634, 2257.200 35.798 C 2258.043 35.961, 2260.143 34.909, 2261.867 33.459 C 2263.590 32.009, 2265 30.412, 2265 29.911 C 2265 29.410, 2264.662 29.010, 2264.250 29.022 C 2263.838 29.034, 2261.548 29.930, 2259.163 31.012 M 1132.156 42.432 C 1130.381 44.904, 1128.244 48.566, 1127.406 50.571 C 1126.568 52.576, 1126.047 54.380, 1126.247 54.581 C 1126.448 54.781, 1129.499 52.032, 1133.028 48.472 C 1139.443 41.999, 1139.443 41.999, 1137.413 39.969 C 1135.383 37.939, 1135.383 37.939, 1132.156 42.432 M 1199 48 C 1199 50.200, 1199.380 52, 1199.845 52 C 1200.310 52, 1201.505 51.100, 1202.500 50 C 1204.247 48.070, 1204.247 47.930, 1202.500 46 C 1201.505 44.900, 1200.310 44, 1199.845 44 C 1199.380 44, 1199 45.800, 1199 48 M 2205.448 51.305 L 2202.811 54.609 2192.451 52.671 L 2182.091 50.733 2172.296 57.291 C 2166.908 60.898, 2160.967 65.149, 2159.094 66.736 C 2156.201 69.189, 2155.794 70.045, 2156.391 72.422 C 2156.777 73.961, 2160.252 78.433, 2164.113 82.360 L 2171.133 89.500 2173.560 86.500 C 2174.895 84.850, 2178.089 78.748, 2180.657 72.940 L 2185.326 62.379 2191.913 60.661 C 2195.536 59.717, 2201.988 58.007, 2206.250 56.862 C 2212.293 55.239, 2214 54.382, 2214 52.972 C 2214 51.977, 2213.727 50.452, 2213.393 49.582 C 2213.059 48.712, 2211.728 48, 2210.436 48 C 2208.975 48, 2207.088 49.250, 2205.448 51.305 M 2249.782 161.688 L 2249.500 173.376 2240.278 180.809 C 2232.221 187.304, 2231.211 188.459, 2232.278 189.955 C 2232.950 190.897, 2234.729 193.116, 2236.230 194.887 L 2238.960 198.106 2248.730 196.969 L 2258.500 195.833 2267.987 200.838 L 2277.474 205.844 2282.037 216.882 L 2286.599 227.920 2285.361 241.710 C 2284.681 249.295, 2283.879 257.413, 2283.581 259.750 C 2283.282 262.087, 2283.414 264, 2283.874 264 C 2284.334 264, 2286.517 261.413, 2288.726 258.250 C 2290.935 255.088, 2293.992 250.025, 2295.520 247 C 2297.047 243.975, 2299.503 237.917, 2300.977 233.538 L 2303.657 225.575 2300.846 216.038 C 2299.300 210.792, 2298.027 206.221, 2298.017 205.879 C 2298.008 205.537, 2300.733 201.834, 2304.074 197.649 C 2308.390 192.242, 2309.974 189.494, 2309.548 188.152 C 2309.219 187.113, 2308.173 185.619, 2307.224 184.830 C 2306.276 184.041, 2302.085 182.426, 2297.912 181.240 C 2293.739 180.053, 2284.964 176.808, 2278.412 174.027 L 2266.500 168.971 2258.524 159.486 C 2254.137 154.268, 2250.438 150, 2250.305 150 C 2250.172 150, 2249.937 155.260, 2249.782 161.688 M 800.200 193.200 C 799.540 193.860, 799 194.976, 799 195.680 C 799 196.384, 799.724 198.769, 800.609 200.980 C 801.867 204.125, 802.745 205, 804.640 205 C 805.973 205, 807.313 204.347, 807.620 203.548 C 807.926 202.749, 806.941 199.824, 805.430 197.048 C 803.919 194.272, 802.394 192, 802.041 192 C 801.688 192, 800.860 192.540, 800.200 193.200 M 855.521 207.388 C 854.135 208.775, 853 210.380, 853 210.955 C 853 211.544, 855.208 212, 858.063 212 C 863.127 212, 863.127 212, 862.813 208.750 C 862.574 206.269, 861.972 205.425, 860.271 205.183 C 858.910 204.990, 857.062 205.847, 855.521 207.388 M 822.313 229.102 C 820.560 229.610, 818.198 231.205, 817.063 232.647 C 815.928 234.090, 815 236.286, 815 237.528 C 815 238.770, 815.712 240.059, 816.582 240.393 C 817.452 240.727, 819.589 240.999, 821.332 240.998 C 824.163 240.996, 824.820 240.392, 827.500 235.331 C 829.150 232.216, 830.650 229.293, 830.833 228.834 C 831.017 228.375, 829.892 228.041, 828.333 228.090 C 826.775 228.140, 824.066 228.595, 822.313 229.102 M 2473.053 232.750 C 2472.480 234.813, 2472.009 237.129, 2472.006 237.899 C 2472.003 238.668, 2473.988 242.943, 2476.419 247.399 C 2480.616 255.095, 2481.164 255.661, 2487.376 258.720 L 2493.916 261.940 2497.458 257.617 C 2499.406 255.239, 2500.998 252.665, 2500.996 251.897 C 2500.994 251.129, 2500.101 249.037, 2499.011 247.250 C 2497.621 244.970, 2496.279 244, 2494.515 244 C 2492.170 244, 2492 243.668, 2492 239.087 L 2492 234.175 2485.229 231.587 C 2481.505 230.164, 2477.476 229, 2476.276 229 C 2474.606 229, 2473.849 229.881, 2473.053 232.750 M 805.608 241.494 C 804.568 242.283, 803.247 243.084, 802.674 243.275 C 802.011 243.496, 802.244 245.153, 803.316 247.832 C 804.242 250.146, 805 252.256, 805 252.520 C 805 252.784, 801.733 253, 797.739 253 L 790.478 253 786.300 259.728 C 784.003 263.429, 782.232 266.565, 782.364 266.698 C 782.497 266.830, 788.381 264.372, 795.439 261.234 C 807.862 255.712, 808.332 255.391, 810.136 251.182 C 811.161 248.791, 811.998 246.534, 811.995 246.167 C 811.992 245.800, 810.980 244.276, 809.745 242.780 C 807.722 240.328, 807.313 240.201, 805.608 241.494 M 694.004 251.750 C 694.006 252.162, 694.899 253.963, 695.989 255.750 C 697.169 257.686, 698.785 259, 699.985 259 C 701.136 259, 702 258.337, 702 257.455 C 702 256.605, 700.895 254.805, 699.545 253.455 C 698.195 252.105, 696.395 251, 695.545 251 C 694.695 251, 694.002 251.338, 694.004 251.750 M 2281.642 273.147 C 2281.289 276.527, 2281 282.391, 2281 286.178 C 2281 291.832, 2280.687 293.174, 2279.250 293.683 C 2278.287 294.025, 2276.713 294.980, 2275.750 295.807 C 2274.787 296.634, 2274 298.686, 2274 300.367 L 2274 303.425 2278.860 298.638 C 2283.643 293.927, 2283.749 293.687, 2285.457 283.675 C 2286.412 278.079, 2287.402 272.572, 2287.658 271.438 C 2287.995 269.940, 2287.410 269.052, 2285.514 268.188 C 2284.080 267.535, 2282.766 267, 2282.595 267 C 2282.425 267, 2281.996 269.766, 2281.642 273.147 M 2166 292.895 C 2166 293.387, 2166.946 296.874, 2168.103 300.645 C 2169.259 304.415, 2172.011 310.159, 2174.219 313.409 C 2176.483 316.742, 2178.458 320.994, 2178.748 323.159 C 2179.032 325.272, 2179.684 327, 2180.197 327 C 2180.711 327, 2182.002 326.534, 2183.066 325.965 C 2184.129 325.396, 2186.345 322.583, 2187.990 319.715 C 2190.748 314.907, 2190.982 313.739, 2190.991 304.750 L 2191 295 2186.750 294.983 C 2184.412 294.973, 2179.350 294.298, 2175.500 293.483 C 2171.651 292.667, 2167.938 292, 2167.250 292 C 2166.563 292, 2166 292.403, 2166 292.895 M 2233 297.930 C 2233 303.770, 2233.097 304, 2235.550 304 C 2238.022 304, 2238.091 303.825, 2237.800 298.250 C 2237.534 293.156, 2237.243 292.464, 2235.250 292.180 C 2233.129 291.879, 2233 292.208, 2233 297.930 M 2334.209 309.284 L 2331 312.595 2331 324.425 L 2331 336.254 2335.750 335.776 C 2338.363 335.513, 2343.537 333.909, 2347.250 332.212 L 2354 329.125 2354 324.633 C 2354 320.306, 2353.722 319.890, 2346.426 313.320 C 2342.260 309.569, 2338.530 306.381, 2338.135 306.236 C 2337.741 306.091, 2335.974 307.463, 2334.209 309.284 M 550.500 362 C 548.352 364.200, 546.894 366, 547.260 366 C 547.626 366, 550.447 365.056, 553.530 363.903 C 558.940 361.879, 559.075 361.740, 557.412 359.903 C 556.465 358.856, 555.401 358, 555.048 358 C 554.695 358, 552.648 359.800, 550.500 362 M 1862.750 369.716 C 1860.708 370.026, 1860.006 370.695, 1860.022 372.316 C 1860.034 373.517, 1860.959 376.517, 1862.077 378.982 C 1863.195 381.447, 1865.853 385.772, 1867.983 388.594 C 1870.114 391.416, 1874.160 395.415, 1876.975 397.482 C 1879.791 399.549, 1882.384 400.950, 1882.738 400.595 C 1883.092 400.241, 1882.817 396.475, 1882.127 392.226 C 1881.437 387.977, 1879.952 381.012, 1878.827 376.750 L 1876.781 369 1871.140 369.150 C 1868.038 369.232, 1864.263 369.487, 1862.750 369.716 M 1123.063 393.783 C 1120.747 396.099, 1120 397.751, 1120 400.555 L 1120 404.263 1124.039 403.722 C 1126.261 403.424, 1128.736 402.634, 1129.539 401.967 C 1130.343 401.301, 1131 400.111, 1131 399.325 C 1131 398.538, 1129.903 396.280, 1128.563 394.307 L 1126.126 390.721 1123.063 393.783 M 1217.366 393.488 C 1217.052 394.306, 1217.920 396.894, 1219.294 399.239 C 1220.668 401.584, 1222.710 404.332, 1223.831 405.347 C 1225.783 407.114, 1225.993 407.117, 1228.840 405.435 C 1230.474 404.470, 1232.702 402.065, 1233.791 400.090 C 1234.880 398.116, 1236.077 395.488, 1236.453 394.250 C 1237.127 392.026, 1237.026 392, 1227.536 392 C 1219.962 392, 1217.817 392.314, 1217.366 393.488 M 1136 406.845 C 1136 407.860, 1136.823 409.435, 1137.829 410.345 C 1138.835 411.255, 1140.935 412, 1142.495 412 L 1145.333 412 1141.417 408.542 C 1139.262 406.640, 1137.162 405.065, 1136.750 405.042 C 1136.338 405.019, 1136 405.830, 1136 406.845 M 2131.383 418.750 C 2131.669 419.712, 2132.857 424.325, 2134.024 429 C 2135.191 433.675, 2136.492 437.857, 2136.915 438.292 C 2137.339 438.728, 2138.175 438.494, 2138.775 437.771 C 2139.573 436.809, 2139.311 433.849, 2137.796 426.729 C 2135.867 417.660, 2135.562 417, 2133.296 417 C 2131.450 417, 2130.990 417.421, 2131.383 418.750 M 1062.250 465.119 C 1059.047 466.043, 1059 466.145, 1059 472.074 C 1059 477.644, 1059.373 478.643, 1064.030 485.545 C 1066.797 489.645, 1069.272 493, 1069.530 493 C 1069.789 493, 1070 486.475, 1070 478.500 C 1070 464.103, 1069.984 464.001, 1067.750 464.090 C 1066.513 464.140, 1064.037 464.603, 1062.250 465.119 M 2064.032 469.750 C 2064.049 470.163, 2064.661 471.288, 2065.392 472.250 C 2066.123 473.212, 2067.182 474, 2067.745 474 C 2068.309 474, 2069.507 472.875, 2070.408 471.500 C 2072.046 469, 2072.046 469, 2068.023 469 C 2065.810 469, 2064.014 469.337, 2064.032 469.750 M 2013.245 478.812 C 2006.863 481.652, 2005.001 482.935, 2005.006 484.490 C 2005.009 485.596, 2005.480 488.187, 2006.052 490.248 C 2006.625 492.310, 2008.085 495.149, 2009.297 496.557 L 2011.500 499.117 2022.250 494.309 L 2033 489.501 2033 485.390 C 2033 481.406, 2032.821 481.183, 2027.245 478.211 L 2021.490 475.144 2013.245 478.812 M 1010.865 486.211 C 1007.622 490.345, 1007.598 490.437, 1010.215 488.750 C 1011.708 487.788, 1013.420 487, 1014.020 487 C 1014.619 487, 1017.898 488.863, 1021.305 491.140 C 1024.712 493.417, 1029.862 497.774, 1032.750 500.822 C 1037.606 505.949, 1038 506.173, 1038 503.804 C 1038 502.396, 1037.351 499.690, 1036.557 497.790 C 1035.430 495.094, 1033.292 493.279, 1026.807 489.518 C 1022.238 486.868, 1017.539 484.075, 1016.365 483.311 C 1014.383 482.020, 1013.990 482.228, 1010.865 486.211 M 389.740 504.085 C 388.773 504.649, 387.285 506.773, 386.435 508.805 C 384.924 512.416, 384.948 512.551, 387.500 514.750 C 388.936 515.987, 391.211 517, 392.556 517 C 394.915 517, 395 516.757, 395 510 C 395 503.988, 394.753 503.004, 393.250 503.030 C 392.288 503.047, 390.708 503.522, 389.740 504.085 M 1916 538.444 C 1916 541.500, 1916.239 544, 1916.532 544 C 1916.825 544, 1918.625 543.348, 1920.532 542.551 C 1922.439 541.754, 1923.992 540.742, 1923.982 540.301 C 1923.972 539.860, 1922.172 538.012, 1919.982 536.194 L 1916 532.887 1916 538.444 M 1783.960 545.191 C 1783.920 551.500, 1783.920 551.500, 1778.960 555.414 L 1774 559.328 1774 568.808 L 1774 578.289 1767.402 577.673 C 1763.661 577.324, 1758.413 575.962, 1755.281 574.528 C 1752.244 573.138, 1749.605 572, 1749.417 572 C 1749.229 572, 1748.946 576.163, 1748.788 581.250 L 1748.500 590.500 1743.750 590.805 C 1741.138 590.972, 1739.005 591.422, 1739.012 591.805 C 1739.018 592.187, 1739.662 594.896, 1740.441 597.825 L 1741.859 603.151 1738.387 605.199 C 1736.477 606.326, 1735.099 607.432, 1735.324 607.657 C 1735.549 607.882, 1740.181 606.468, 1745.616 604.515 C 1751.052 602.561, 1759.550 599.867, 1764.500 598.528 C 1769.450 597.189, 1778.217 595.405, 1783.982 594.565 C 1792.632 593.304, 1794.774 592.641, 1796.240 590.769 C 1797.217 589.521, 1799.250 586.588, 1800.758 584.252 L 1803.500 580.004 1815.750 580.002 L 1828 580 1828 575.219 C 1828 570.717, 1827.659 570.100, 1822.168 564.667 L 1816.337 558.896 1810.032 559.198 L 1803.728 559.500 1807.397 563.884 C 1809.415 566.295, 1810.901 568.433, 1810.699 568.634 C 1810.498 568.836, 1807.445 568.053, 1803.916 566.895 C 1800.387 565.738, 1796.374 564.209, 1794.998 563.498 C 1793.621 562.786, 1791.660 561.282, 1790.639 560.153 C 1788.816 558.139, 1788.847 558.024, 1792.355 553.742 L 1795.928 549.382 1789.964 544.132 L 1784 538.882 1783.960 545.191 M 388 555.907 L 388 568 392.222 568 L 396.444 568 394.287 565.843 L 392.130 563.686 395.042 557.917 L 397.954 552.148 392.977 547.981 L 388 543.814 388 555.907 M 1819.655 574.829 C 1818.745 575.835, 1818 576.960, 1818 577.329 C 1818 577.698, 1819.800 578, 1822 578 C 1824.200 578, 1826 577.620, 1826 577.155 C 1826 576.690, 1825.177 575.565, 1824.171 574.655 C 1823.165 573.745, 1822.110 573, 1821.826 573 C 1821.542 573, 1820.565 573.823, 1819.655 574.829 M 523.006 602.250 C 523.009 605.138, 523.452 610.200, 523.991 613.500 C 524.530 616.800, 525.523 620.836, 526.198 622.469 L 527.424 625.439 528.112 622.969 C 528.491 621.611, 528.845 615.212, 528.900 608.750 L 529 597 526 597 C 523.047 597, 523 597.082, 523.006 602.250 M 1688.118 615.210 C 1687.643 616.469, 1686.963 618.850, 1686.605 620.500 C 1686.079 622.931, 1686.543 624.211, 1689.051 627.250 C 1690.753 629.313, 1692.917 631, 1693.861 631 C 1694.804 631, 1697.134 629.685, 1699.038 628.077 L 1702.500 625.154 1697.500 620.002 C 1694.750 617.168, 1691.708 614.415, 1690.741 613.885 C 1689.347 613.120, 1688.802 613.396, 1688.118 615.210 M 1571.250 618.277 C 1569.181 619.223, 1569 619.971, 1569 627.572 L 1569 635.839 1564.063 637.479 L 1559.125 639.119 1553.950 635.560 C 1550.951 633.497, 1547.561 632, 1545.888 632 C 1543.127 632, 1543 632.200, 1543 636.555 C 1543 641.078, 1543.036 641.126, 1548 643.189 C 1553 645.267, 1553 645.267, 1553 650.133 C 1553 654.897, 1552.935 655, 1549.934 655 C 1548.248 655, 1545.886 654.483, 1544.684 653.851 C 1543.483 653.220, 1541.228 651.645, 1539.673 650.351 C 1538.119 649.058, 1535.884 648, 1534.707 648 C 1532.910 648, 1533.402 648.844, 1537.784 653.281 C 1540.653 656.186, 1543 659.029, 1543 659.599 C 1543 660.168, 1539.720 661.408, 1535.711 662.353 C 1529.052 663.923, 1527.602 663.944, 1518.961 662.599 C 1513.757 661.790, 1504.724 660.824, 1498.886 660.454 L 1488.273 659.780 1485.065 665.387 C 1482.450 669.957, 1481.545 670.827, 1480.171 670.091 C 1479.244 669.595, 1475.968 666.550, 1472.891 663.324 C 1469.814 660.099, 1466.389 655.444, 1465.279 652.980 C 1464.168 650.516, 1461.852 647.178, 1460.130 645.563 C 1457.902 643.472, 1457 643.072, 1457 644.174 C 1457 645.026, 1460.656 651.298, 1465.125 658.111 C 1469.593 664.925, 1474.520 673.200, 1476.073 676.500 C 1477.625 679.800, 1479.032 683.679, 1479.198 685.121 C 1479.433 687.157, 1478.203 689.106, 1473.679 693.871 L 1467.858 700 1461.270 700 C 1454.681 700, 1454.681 700, 1448.870 705.543 C 1445.674 708.591, 1443.608 711.253, 1444.279 711.457 C 1444.951 711.662, 1447.627 712.512, 1450.226 713.346 C 1454.785 714.809, 1455.335 714.754, 1465.698 711.806 L 1476.442 708.750 1486.927 698.875 L 1497.412 689 1509.226 689 L 1521.040 689 1530.193 684.403 L 1539.345 679.806 1541.150 682.153 C 1542.143 683.444, 1542.966 684.866, 1542.978 685.312 C 1542.990 685.759, 1545.244 684.904, 1547.987 683.411 C 1550.729 681.918, 1556.555 677.459, 1560.932 673.502 L 1568.891 666.307 1578.099 665.654 C 1583.164 665.294, 1590.750 665, 1594.958 665 C 1602.506 665, 1602.724 664.927, 1611.205 659.546 C 1617.281 655.691, 1623.713 652.769, 1633.150 649.575 C 1640.493 647.090, 1649.088 644.757, 1652.250 644.391 C 1655.920 643.966, 1658 643.260, 1658 642.440 C 1658 641.734, 1656.150 639.572, 1653.889 637.637 C 1651.628 635.702, 1648.074 632.937, 1645.990 631.493 L 1642.203 628.868 1636.531 632.069 C 1630.944 635.222, 1630.761 635.254, 1624.180 634.163 C 1620.506 633.555, 1616.037 632.763, 1614.250 632.403 L 1611 631.750 1611 636.875 C 1611 641.238, 1610.718 642, 1609.105 642 C 1608.063 642, 1604.126 641.049, 1600.355 639.887 C 1596.585 638.725, 1591.700 636.864, 1589.500 635.750 C 1587.300 634.637, 1583.635 632.449, 1581.356 630.888 C 1577.927 628.539, 1577.003 627.181, 1576.005 623.022 C 1575.342 620.256, 1574.507 617.826, 1574.150 617.621 C 1573.792 617.416, 1572.487 617.711, 1571.250 618.277 M 243 635 C 243 637.200, 243.380 639, 243.845 639 C 244.310 639, 245.505 638.100, 246.500 637 C 248.247 635.070, 248.247 634.930, 246.500 633 C 245.505 631.900, 244.310 631, 243.845 631 C 243.380 631, 243 632.800, 243 635 M 1555.417 664.356 C 1555.101 665.180, 1554.990 666.900, 1555.171 668.177 C 1555.389 669.715, 1556.279 670.610, 1557.805 670.827 C 1559.073 671.006, 1560.755 670.618, 1561.544 669.963 C 1562.333 669.309, 1562.744 668.395, 1562.459 667.933 C 1562.173 667.471, 1560.601 666.140, 1558.966 664.976 C 1556.457 663.189, 1555.902 663.092, 1555.417 664.356 M 1536 670.911 C 1536 671.412, 1537.385 672.987, 1539.077 674.411 C 1541.243 676.234, 1543.315 677, 1546.077 677 C 1549.894 677, 1550 676.905, 1550 673.500 L 1550 670 1543 670 C 1539.150 670, 1536 670.410, 1536 670.911 M 1437.500 716 L 1433.594 720 1424.297 720 L 1415 720 1415 724 C 1415 727.960, 1415.038 728, 1418.750 727.976 C 1420.813 727.962, 1424.525 727.504, 1427 726.957 C 1429.475 726.411, 1434.088 725.017, 1437.250 723.860 L 1443 721.756 1443 716.878 C 1443 714.195, 1442.641 712, 1442.203 712 C 1441.765 712, 1439.648 713.800, 1437.500 716 M 1358.200 738.200 C 1357.540 738.860, 1357 740.660, 1357 742.200 C 1357 744.893, 1357.190 745, 1362 745 C 1364.905 745, 1367 744.549, 1367 743.923 C 1367 743.331, 1365.685 741.531, 1364.077 739.923 C 1362.469 738.315, 1360.759 737, 1360.277 737 C 1359.795 737, 1358.860 737.540, 1358.200 738.200 M 1031.127 846.269 C 1030.006 848.040, 1029.406 849.765, 1029.794 850.104 C 1030.182 850.443, 1032.871 851.984, 1035.769 853.529 L 1041.037 856.338 1043.901 853.595 L 1046.764 850.852 1052.942 853.971 L 1059.120 857.089 1062.493 855.004 C 1065.824 852.946, 1065.851 852.871, 1064.585 849.209 L 1063.304 845.500 1054.152 845.212 C 1045.402 844.938, 1045 845.018, 1045 847.046 C 1045 848.212, 1044.662 849.014, 1044.250 848.828 C 1043.838 848.641, 1041.175 847.265, 1038.332 845.769 L 1033.165 843.050 1031.127 846.269 M 997.973 857.949 C 998.546 859.021, 1000.012 860.596, 1001.230 861.449 C 1002.448 862.302, 1005.145 863, 1007.223 863 C 1009.300 863, 1011 862.590, 1011 862.089 C 1011 861.588, 1009.615 860.013, 1007.923 858.589 C 1005.747 856.758, 1003.688 856, 1000.888 856 C 997.274 856, 997.020 856.170, 997.973 857.949 M 647.597 874 C 646.100 876.750, 644.639 879, 644.351 879 C 644.063 879, 641.833 877.568, 639.396 875.818 C 636.056 873.419, 634.681 872.919, 633.814 873.786 C 632.947 874.653, 632.951 875.867, 633.829 878.718 C 634.469 880.798, 635.362 883.068, 635.813 883.762 C 636.452 884.745, 637.357 884.772, 639.908 883.882 C 643.113 882.765, 643.318 882.873, 649.361 888.862 L 655.538 894.984 658.005 890.992 C 659.362 888.796, 660.787 887, 661.171 887 C 661.556 887, 662.440 888.575, 663.136 890.500 C 663.832 892.425, 664.874 893.984, 665.451 893.965 C 666.028 893.946, 669.425 893.286, 673 892.500 C 676.575 891.714, 680.232 891.054, 681.126 891.035 C 682.390 891.008, 683.143 893.060, 684.507 900.250 C 685.472 905.337, 686.566 909.840, 686.937 910.257 C 687.309 910.673, 688.895 909.675, 690.462 908.039 L 693.311 905.065 690.139 896.783 C 688.394 892.227, 686.870 887.186, 686.751 885.581 C 686.588 883.364, 685.551 882.040, 682.443 880.081 C 680.191 878.661, 675.523 876.157, 672.068 874.515 L 665.786 871.530 663.476 874.428 L 661.166 877.325 656.194 873.162 C 653.460 870.873, 651.019 869, 650.770 869 C 650.521 869, 649.093 871.250, 647.597 874 M 792.642 872.750 C 792.301 874.813, 792.017 877.260, 792.011 878.189 C 792.001 879.752, 792.337 879.764, 796.500 878.345 C 800.804 876.879, 801 876.642, 801 872.906 C 801 869.038, 800.963 869, 797.131 869 C 793.437 869, 793.234 869.170, 792.642 872.750 M 820.912 876.836 C 821.453 877.846, 823.720 880.321, 825.950 882.336 C 828.181 884.351, 830.904 886, 832.003 886 C 833.757 886, 834 885.331, 834 880.500 L 834 875 826.965 875 C 820.449 875, 820.002 875.135, 820.912 876.836 M 323.732 878.536 C 321.679 879.931, 320 881.691, 320 882.448 C 320 883.205, 320.675 887.351, 321.500 891.662 C 322.325 895.973, 323 899.800, 323 900.167 C 323 900.533, 321.087 901.471, 318.750 902.250 L 314.500 903.667 314.500 909.083 L 314.500 914.500 320.500 914.769 C 326.027 915.017, 326.749 915.328, 329.663 918.713 L 332.825 922.388 328.426 931.147 L 324.027 939.906 326.236 941.453 C 327.451 942.304, 329.888 943, 331.651 943 C 334.721 943, 334.909 942.767, 336.087 937.500 C 336.764 934.475, 337.681 932, 338.124 932 C 338.567 932, 339.380 932.788, 339.931 933.750 C 340.482 934.712, 341.374 936.163, 341.914 936.974 C 342.745 938.223, 343.282 938.084, 345.435 936.061 L 347.975 933.675 344.487 929.419 C 341.010 925.176, 341 925.134, 340.970 914.832 C 340.941 904.920, 340.800 904.257, 337.511 898.521 C 334.134 892.634, 334.111 892.511, 335.973 890.521 C 337.838 888.527, 337.803 888.416, 333.373 882.250 C 330.903 878.813, 328.563 876, 328.173 876 C 327.783 876, 325.785 877.141, 323.732 878.536 M 405.250 888.158 L 395 893.146 395 897.168 L 395 901.190 399.750 898.437 C 402.363 896.923, 406.300 894.458, 408.500 892.959 C 410.700 891.459, 413.219 889.393, 414.098 888.366 C 414.977 887.340, 415.975 885.712, 416.317 884.750 C 416.658 883.788, 416.614 883.038, 416.219 883.085 C 415.823 883.131, 410.887 885.414, 405.250 888.158 M 590.792 893.750 L 590.500 901.500 580.832 901.785 L 571.163 902.070 568.332 896.854 L 565.500 891.637 565.207 898.189 L 564.915 904.741 555.457 911.557 C 546.543 917.981, 546.001 918.577, 546.017 921.936 L 546.034 925.500 553.132 918.250 C 560.231 911, 560.231 911, 565.865 911.005 L 571.500 911.011 575.500 922.255 C 578.847 931.664, 579.551 932.969, 579.813 930.250 C 579.986 928.462, 580.661 927.010, 581.313 927.022 C 581.966 927.034, 583.583 927.877, 584.906 928.894 C 586.393 930.037, 587.083 931.340, 586.713 932.304 C 586.384 933.163, 584.626 934.048, 582.807 934.272 C 580.988 934.497, 583.212 934.752, 587.750 934.840 C 592.288 934.928, 596 934.631, 596 934.180 C 596 933.729, 594.495 931.591, 592.655 929.430 C 590.815 927.268, 588.790 924.517, 588.155 923.316 C 587.520 922.114, 587 919.400, 587 917.284 C 587 913.910, 587.735 912.710, 592.988 907.512 L 598.975 901.587 595.988 899.695 C 594.344 898.655, 593 897.454, 593 897.028 C 593 896.601, 593.675 894.338, 594.500 892 C 595.325 889.662, 596 887.355, 596 886.874 C 596 886.393, 594.894 886, 593.542 886 C 591.168 886, 591.074 886.265, 590.792 893.750 M 275.022 895.342 C 267.835 900.308, 267.498 900.720, 266.330 905.978 C 265.662 908.987, 265.216 911.550, 265.339 911.673 C 265.463 911.796, 268.924 911.431, 273.032 910.863 C 277.139 910.294, 280.621 909.709, 280.768 909.563 C 280.916 909.417, 281.513 905.398, 282.096 900.632 C 282.679 895.867, 283.008 891.564, 282.828 891.071 C 282.648 890.579, 279.135 892.500, 275.022 895.342 M 495.036 893.456 C 494.372 894.257, 494.059 895.286, 494.341 895.742 C 494.623 896.199, 496.907 897.598, 499.417 898.851 C 501.927 900.105, 504.435 900.849, 504.990 900.506 C 505.546 900.163, 506 898.761, 506 897.390 C 506 895.492, 505.174 894.553, 502.532 893.449 C 500.625 892.652, 498.430 892, 497.655 892 C 496.879 892, 495.701 892.655, 495.036 893.456 M 469.695 910.668 C 467.281 914.333, 466 917.444, 466 919.639 C 466 921.488, 466.421 923, 466.935 923 C 467.449 923, 468.983 922.577, 470.344 922.059 C 472.576 921.211, 472.888 920.376, 473.531 913.514 C 473.923 909.332, 474.051 905.718, 473.817 905.483 C 473.582 905.249, 471.727 907.582, 469.695 910.668 M 687 918.584 C 681.775 923.855, 676.285 928.805, 674.800 929.584 C 673.314 930.363, 671.591 931, 670.970 931 C 670.273 931, 670.050 929.948, 670.386 928.250 C 670.686 926.737, 671.199 923.700, 671.525 921.500 L 672.119 917.500 669.313 922.222 C 666.895 926.293, 665.507 927.381, 659.254 930.107 C 652.660 932.982, 652 933.532, 652 936.149 L 652 939.029 657.848 936.077 C 663.231 933.359, 663.824 933.253, 665.311 934.740 C 666.665 936.094, 667.361 936.157, 669.617 935.129 C 671.097 934.454, 674.603 932.379, 677.409 930.517 C 680.214 928.655, 685.869 924.217, 689.975 920.655 L 697.439 914.180 701.266 917.211 C 703.370 918.877, 705.236 920.074, 705.411 919.871 C 705.586 919.667, 706.240 918.517, 706.865 917.316 C 707.489 916.114, 708 914.884, 708 914.583 C 708 914.281, 705.765 912.901, 703.033 911.517 C 700.302 910.133, 697.714 909, 697.283 909 C 696.852 909, 692.225 913.313, 687 918.584 M 496.096 918.772 L 492.691 925.839 486.596 926.534 C 483.243 926.915, 480.142 927.441, 479.703 927.702 C 479.265 927.962, 481.019 930.647, 483.600 933.669 L 488.293 939.162 486.633 942.644 L 484.972 946.127 489.736 945.512 C 492.356 945.173, 497.650 944.419, 501.500 943.834 C 505.350 943.250, 509.094 942.450, 509.821 942.057 C 510.547 941.663, 506.610 940.764, 501.071 940.058 C 495.532 939.352, 491 938.383, 491 937.904 C 491 937.425, 492.649 933.700, 494.665 929.626 C 498.113 922.659, 498.554 922.189, 502.097 921.714 C 504.169 921.436, 506.895 920.487, 508.155 919.604 C 510.383 918.043, 510.306 918, 505.286 918 C 500.233 918, 500.120 917.935, 499.813 914.852 C 499.519 911.894, 499.294 912.130, 496.096 918.772 M 627 913.752 C 624.827 914.837, 623.379 916.353, 623.180 917.750 C 622.902 919.711, 623.305 920, 626.320 920 C 628.262 920, 630.813 919.151, 632.139 918.063 C 634.026 916.514, 634.285 915.773, 633.429 914.372 C 632.839 913.408, 631.939 912.480, 631.429 912.311 C 630.918 912.142, 628.925 912.790, 627 913.752 M 553 931.617 L 550.500 936.229 541.141 936.557 C 535.993 936.738, 531.591 937.075, 531.359 937.308 C 531.127 937.540, 534.919 938.241, 539.786 938.865 C 544.653 939.489, 551.117 940, 554.151 940 C 557.185 940, 559.968 939.699, 560.336 939.330 C 560.705 938.962, 559.174 937.568, 556.934 936.233 C 554.695 934.897, 553.035 933.632, 553.245 933.421 C 553.456 933.210, 555.850 932.917, 558.564 932.769 C 563.127 932.520, 563.524 932.292, 563.816 929.750 C 564.118 927.125, 563.936 927, 559.816 927.003 C 555.714 927.006, 555.376 927.235, 553 931.617 M 705.646 929.452 C 704.191 930.801, 703 932.601, 703 933.452 C 703 934.304, 703.476 935, 704.057 935 C 704.639 935, 707.114 934.497, 709.557 933.881 C 712.001 933.266, 714 932.444, 714 932.056 C 714 931.667, 712.958 930.370, 711.686 929.174 C 710.413 927.978, 709.128 927, 708.832 927 C 708.535 927, 707.101 928.104, 705.646 929.452 M 284.469 932.273 L 281.826 934.547 285.663 938.854 L 289.500 943.161 294.250 941.116 C 298.918 939.106, 299 938.993, 299 934.536 L 299 930 293.056 930 C 288.315 930, 286.576 930.460, 284.469 932.273 M 308.203 941.049 C 304.379 942.748, 304.026 943.179, 304.989 944.979 C 305.584 946.090, 307.180 947.727, 308.535 948.615 C 310.810 950.105, 311.197 950.101, 313.546 948.562 C 314.946 947.645, 316.587 945.806, 317.193 944.477 C 318.026 942.649, 317.985 941.686, 317.025 940.530 C 316.326 939.688, 315.023 939.032, 314.128 939.071 C 313.232 939.109, 310.567 940, 308.203 941.049 M 430 943.300 C 430 943.539, 431.826 944.942, 434.057 946.419 C 438.111 949.102, 438.122 949.103, 451.807 948.438 C 459.338 948.072, 467.075 947.465, 469 947.090 C 471.308 946.641, 465.857 945.974, 453 945.133 C 442.275 944.432, 432.712 943.635, 431.750 943.362 C 430.788 943.089, 430 943.061, 430 943.300" stroke="none" fill="#ccccd4" fill-rule="evenodd"/></svg>